<?xml version="1.0" encoding="UTF-8"?>
<!DOCTYPE svg PUBLIC "-//W3C//DTD SVG 1.1//EN" "http://www.w3.org/Graphics/SVG/1.1/DTD/svg11.dtd">
<svg xmlns="http://www.w3.org/2000/svg" version="1.1" width="531px" height="470px" style="shape-rendering:geometricPrecision; text-rendering:geometricPrecision; image-rendering:optimizeQuality; fill-rule:evenodd; clip-rule:evenodd" xmlns:xlink="http://www.w3.org/1999/xlink">
<g><path style="opacity:0.343" fill="#fea5af" d="M 151.5,116.5 C 120.167,116.5 88.8333,116.5 57.5,116.5C 57.5,117.5 57.5,118.5 57.5,119.5C 56.6091,118.739 55.9424,117.739 55.5,116.5C 87.6641,115.17 119.664,115.17 151.5,116.5 Z"/></g>
<g><path style="opacity:0.346" fill="#ffa8b1" d="M 275.5,116.5 C 244.16,116.167 212.826,116.5 181.5,117.5C 182.612,119.419 183.946,121.086 185.5,122.5C 185.427,124.027 186.094,125.027 187.5,125.5C 187.5,126.167 187.5,126.833 187.5,127.5C 184.121,124.433 181.454,120.766 179.5,116.5C 211.664,115.17 243.664,115.17 275.5,116.5 Z"/></g>
<g><path style="opacity:0.347" fill="#fea3ae" d="M 400.5,117.5 C 400.167,117.5 399.833,117.5 399.5,117.5C 369.003,116.336 338.336,116.169 307.5,117C 306.748,117.671 306.414,118.504 306.5,119.5C 305.609,118.739 304.942,117.739 304.5,116.5C 320.5,116.167 336.5,115.833 352.5,115.5C 368.848,115.501 384.848,116.167 400.5,117.5 Z"/></g>
<g><path style="opacity:1" fill="#dd293b" d="M 151.5,116.5 C 151.5,117.167 151.5,117.833 151.5,118.5C 151.167,118.5 150.833,118.5 150.5,118.5C 135.504,117.833 120.337,117.5 105,117.5C 89.485,117.501 74.3183,118.167 59.5,119.5C 58.8333,119.5 58.1667,119.5 57.5,119.5C 57.5,118.5 57.5,117.5 57.5,116.5C 88.8333,116.5 120.167,116.5 151.5,116.5 Z"/></g>
<g><path style="opacity:1" fill="#dd293a" d="M 275.5,116.5 C 275.5,117.167 275.5,117.833 275.5,118.5C 246.574,117.509 217.574,117.175 188.5,117.5C 187.167,117.5 185.833,117.5 184.5,117.5C 184.629,119.216 184.962,120.883 185.5,122.5C 183.946,121.086 182.612,119.419 181.5,117.5C 212.826,116.5 244.16,116.167 275.5,116.5 Z"/></g>
<g><path style="opacity:1" fill="#de2f3d" d="M 399.5,117.5 C 369.167,117.5 338.833,117.5 308.5,117.5C 308.5,118.833 308.5,120.167 308.5,121.5C 308.167,121.5 307.833,121.5 307.5,121.5C 306.662,121.158 306.328,120.492 306.5,119.5C 306.414,118.504 306.748,117.671 307.5,117C 338.336,116.169 369.003,116.336 399.5,117.5 Z"/></g>
<g><path style="opacity:1" fill="#f01b26" d="M 150.5,118.5 C 121.271,118.377 91.9381,118.543 62.5,119C 61.4639,120.776 61.4639,122.609 62.5,124.5C 61.8333,124.5 61.1667,124.5 60.5,124.5C 60.5,124.167 60.5,123.833 60.5,123.5C 60.1667,122.167 59.8333,120.833 59.5,119.5C 74.3183,118.167 89.485,117.501 105,117.5C 120.337,117.5 135.504,117.833 150.5,118.5 Z"/></g>
<g><path style="opacity:1" fill="#f01924" d="M 188.5,117.5 C 217.574,117.175 246.574,117.509 275.5,118.5C 276.167,118.833 276.833,119.167 277.5,119.5C 277.5,120.167 277.5,120.833 277.5,121.5C 275.061,120.1 273.228,120.767 272,123.5C 271.506,121.866 271.34,120.199 271.5,118.5C 243.662,118.831 215.995,118.498 188.5,117.5 Z"/></g>
<g><path style="opacity:0.753" fill="#f49394" d="M 275.5,116.5 C 276.906,116.973 277.573,117.973 277.5,119.5C 276.833,119.167 276.167,118.833 275.5,118.5C 275.5,117.833 275.5,117.167 275.5,116.5 Z"/></g>
<g><path style="opacity:1" fill="#ef1c27" d="M 399.5,117.5 C 399.833,117.5 400.167,117.5 400.5,117.5C 400.5,118.167 400.5,118.833 400.5,119.5C 370.209,118.349 339.875,118.182 309.5,119C 311.009,121.506 312.509,124.006 314,126.5C 314.333,126.167 314.667,125.833 315,125.5C 315.739,128.546 316.572,131.546 317.5,134.5C 316.833,134.5 316.167,134.5 315.5,134.5C 315.5,134.167 315.5,133.833 315.5,133.5C 315.573,131.973 314.906,130.973 313.5,130.5C 313.13,127.733 311.796,125.733 309.5,124.5C 309.443,123.391 309.11,122.391 308.5,121.5C 308.5,120.167 308.5,118.833 308.5,117.5C 338.833,117.5 369.167,117.5 399.5,117.5 Z"/></g>
<g><path style="opacity:0.239" fill="#ffc6c7" d="M 151.5,116.5 C 152.906,116.973 153.573,117.973 153.5,119.5C 152.833,119.167 152.167,118.833 151.5,118.5C 151.5,117.833 151.5,117.167 151.5,116.5 Z"/></g>
<g><path style="opacity:0.816" fill="#f9989b" d="M 57.5,119.5 C 58.1667,119.5 58.8333,119.5 59.5,119.5C 59.8333,120.833 60.1667,122.167 60.5,123.5C 59.0256,122.564 58.0256,121.23 57.5,119.5 Z"/></g>
<g><path style="opacity:1" fill="#fe031d" d="M 150.5,118.5 C 150.833,118.5 151.167,118.5 151.5,118.5C 152.11,120.434 153.11,122.101 154.5,123.5C 155.167,123.833 155.833,124.167 156.5,124.5C 156.427,126.027 157.094,127.027 158.5,127.5C 159.338,127.842 159.672,128.508 159.5,129.5C 159.427,131.027 160.094,132.027 161.5,132.5C 161.536,136.2 163.203,138.867 166.5,140.5C 166.738,142.404 167.738,143.738 169.5,144.5C 169.427,146.027 170.094,147.027 171.5,147.5C 172.338,147.842 172.672,148.508 172.5,149.5C 172.427,151.027 173.094,152.027 174.5,152.5C 174.5,153.167 174.5,153.833 174.5,154.5C 175.226,157.288 176.893,159.288 179.5,160.5C 179.536,164.2 181.203,166.867 184.5,168.5C 184.427,170.027 185.094,171.027 186.5,171.5C 186.5,172.167 186.5,172.833 186.5,173.5C 186.913,175.89 187.579,178.223 188.5,180.5C 189.417,181.127 190.417,181.461 191.5,181.5C 192.759,185.025 194.759,188.025 197.5,190.5C 198.167,190.833 198.833,191.167 199.5,191.5C 199.427,193.027 200.094,194.027 201.5,194.5C 202.338,194.842 202.672,195.508 202.5,196.5C 202.5,197.167 202.5,197.833 202.5,198.5C 203.213,201.237 203.213,203.904 202.5,206.5C 204.007,207.739 205.174,207.405 206,205.5C 206.816,206.823 207.983,207.489 209.5,207.5C 209.5,208.167 209.5,208.833 209.5,209.5C 211.666,212.838 212.999,216.505 213.5,220.5C 214.5,220.5 215.5,220.5 216.5,220.5C 217.87,223.312 218.87,226.312 219.5,229.5C 221.528,230.549 223.528,231.549 225.5,232.5C 225.5,234.5 225.5,236.5 225.5,238.5C 225.5,239.167 225.167,239.5 224.5,239.5C 222.929,240.197 221.429,240.53 220,240.5C 218.218,243.632 217.052,246.965 216.5,250.5C 215.833,250.5 215.5,250.833 215.5,251.5C 213.824,252.183 213.157,253.517 213.5,255.5C 209.238,257.236 206.904,260.903 206.5,266.5C 205.032,267.779 204.365,269.446 204.5,271.5C 203.094,271.973 202.427,272.973 202.5,274.5C 200.273,275.401 199.273,277.067 199.5,279.5C 198.094,279.973 197.427,280.973 197.5,282.5C 197.5,283.167 197.167,283.5 196.5,283.5C 193.443,285.254 191.776,287.921 191.5,291.5C 191.672,292.492 191.338,293.158 190.5,293.5C 188.178,294.802 186.845,296.802 186.5,299.5C 185.292,300.234 183.959,300.567 182.5,300.5C 182.5,302.167 182.5,303.833 182.5,305.5C 182.672,306.492 182.338,307.158 181.5,307.5C 178.221,308.031 176.887,310.031 177.5,313.5C 174.916,314.048 173.916,315.715 174.5,318.5C 172.738,319.262 171.738,320.596 171.5,322.5C 168.463,324.227 166.463,326.894 165.5,330.5C 164.311,331.429 162.978,331.762 161.5,331.5C 161.309,334.983 160.643,338.316 159.5,341.5C 159.672,342.492 159.338,343.158 158.5,343.5C 156.178,344.802 154.845,346.802 154.5,349.5C 154.672,350.492 154.338,351.158 153.5,351.5C 152.508,351.328 151.842,351.662 151.5,352.5C 120.907,353.492 90.2402,353.825 59.5,353.5C 59.3915,351.486 60.0582,349.82 61.5,348.5C 62.8366,347.685 63.8366,346.518 64.5,345C 65.9506,345.263 67.2839,345.096 68.5,344.5C 67.8333,343.833 67.1667,343.167 66.5,342.5C 67.3195,340.026 68.3195,337.693 69.5,335.5C 69.8333,334.167 70.1667,332.833 70.5,331.5C 72.8218,330.198 74.1551,328.198 74.5,325.5C 75.9063,325.027 76.573,324.027 76.5,322.5C 77.9063,322.027 78.573,321.027 78.5,319.5C 80.4456,318.965 81.4456,317.632 81.5,315.5C 82.1098,314.609 82.4431,313.609 82.5,312.5C 83.9063,312.027 84.573,311.027 84.5,309.5C 86.8218,308.198 88.1551,306.198 88.5,303.5C 90.369,301.966 91.7023,299.966 92.5,297.5C 93.9063,297.027 94.573,296.027 94.5,294.5C 95.9063,294.027 96.573,293.027 96.5,291.5C 98.4456,290.965 99.4456,289.632 99.5,287.5C 100.11,286.609 100.443,285.609 100.5,284.5C 101.906,284.027 102.573,283.027 102.5,281.5C 103.906,281.027 104.573,280.027 104.5,278.5C 105.906,278.027 106.573,277.027 106.5,275.5C 107.906,275.027 108.573,274.027 108.5,272.5C 108.328,271.508 108.662,270.842 109.5,270.5C 110.906,270.027 111.573,269.027 111.5,267.5C 111.328,266.508 111.662,265.842 112.5,265.5C 113.906,265.027 114.573,264.027 114.5,262.5C 115.167,262.167 115.833,261.833 116.5,261.5C 118.042,260.699 119.708,260.366 121.5,260.5C 121.34,258.801 121.506,257.134 122,255.5C 124.568,253.03 126.068,250.03 126.5,246.5C 126.5,245.833 126.5,245.167 126.5,244.5C 127.583,244.461 128.583,244.127 129.5,243.5C 132.134,239.908 132.967,235.908 132,231.5C 131.329,230.748 130.496,230.414 129.5,230.5C 128.347,228.193 127.18,225.86 126,223.5C 125.329,222.748 124.496,222.414 123.5,222.5C 123.5,221.5 123.5,220.5 123.5,219.5C 122.85,217.565 122.517,215.565 122.5,213.5C 123.675,213.719 124.675,213.386 125.5,212.5C 120.433,212.519 117.266,210.186 116,205.5C 114.25,203.576 112.417,201.909 110.5,200.5C 110.144,198.81 109.144,197.81 107.5,197.5C 106.662,197.158 106.328,196.492 106.5,195.5C 105.63,192.622 104.297,189.955 102.5,187.5C 102.043,186.702 101.376,186.369 100.5,186.5C 99.8046,183.085 98.1379,180.418 95.5,178.5C 95.9118,176.027 94.9118,174.694 92.5,174.5C 92.5,174.167 92.5,173.833 92.5,173.5C 92.1667,172.167 91.8333,170.833 91.5,169.5C 91.4486,167.43 92.1153,165.597 93.5,164C 92.5765,162.189 91.7431,162.355 91,164.5C 89.1759,163.251 89.3426,162.085 91.5,161C 90.5838,160.626 89.7504,160.126 89,159.5C 88.6924,160.308 88.1924,160.975 87.5,161.5C 87.0132,156.673 84.6799,153.173 80.5,151C 79.2062,148.913 78.0395,146.746 77,144.5C 76.3292,143.748 75.4959,143.414 74.5,143.5C 73.5275,141.861 72.1942,140.527 70.5,139.5C 70.1551,136.802 68.8218,134.802 66.5,133.5C 65.6618,133.158 65.3284,132.492 65.5,131.5C 65.4546,128.679 64.4546,126.346 62.5,124.5C 61.4639,122.609 61.4639,120.776 62.5,119C 91.9381,118.543 121.271,118.377 150.5,118.5 Z"/></g>
<g><path style="opacity:1" fill="#fe031d" d="M 188.5,117.5 C 215.995,118.498 243.662,118.831 271.5,118.5C 271.34,120.199 271.506,121.866 272,123.5C 273.228,120.767 275.061,120.1 277.5,121.5C 278.167,121.833 278.833,122.167 279.5,122.5C 279.427,124.027 280.094,125.027 281.5,125.5C 281.427,127.027 282.094,128.027 283.5,128.5C 283.427,130.027 284.094,131.027 285.5,131.5C 286.338,131.842 286.672,132.508 286.5,133.5C 286.5,134.167 286.5,134.833 286.5,135.5C 287.11,137.434 288.11,139.101 289.5,140.5C 290.5,141.167 291.5,141.833 292.5,142.5C 292.427,144.027 293.094,145.027 294.5,145.5C 295.338,145.842 295.672,146.508 295.5,147.5C 295.427,149.027 296.094,150.027 297.5,150.5C 297.427,152.027 298.094,153.027 299.5,153.5C 299.427,155.027 300.094,156.027 301.5,156.5C 302.338,156.842 302.672,157.508 302.5,158.5C 302.427,160.027 303.094,161.027 304.5,161.5C 304.241,163.989 305.241,165.656 307.5,166.5C 307.427,168.027 308.094,169.027 309.5,169.5C 309.738,171.404 310.738,172.738 312.5,173.5C 313.338,173.842 313.672,174.508 313.5,175.5C 313.427,177.027 314.094,178.027 315.5,178.5C 315.427,180.027 316.094,181.027 317.5,181.5C 318.338,181.842 318.672,182.508 318.5,183.5C 318.427,185.027 319.094,186.027 320.5,186.5C 320.427,188.027 321.094,189.027 322.5,189.5C 323.338,189.842 323.672,190.508 323.5,191.5C 323.427,193.027 324.094,194.027 325.5,194.5C 325.427,196.027 326.094,197.027 327.5,197.5C 327.427,199.027 328.094,200.027 329.5,200.5C 329.427,202.027 330.094,203.027 331.5,203.5C 331.427,205.027 332.094,206.027 333.5,206.5C 334.338,206.842 334.672,207.508 334.5,208.5C 334.5,209.167 334.5,209.833 334.5,210.5C 335.226,213.288 336.893,215.288 339.5,216.5C 339.427,218.027 340.094,219.027 341.5,219.5C 341.427,221.027 342.094,222.027 343.5,222.5C 343.427,224.027 344.094,225.027 345.5,225.5C 345.427,227.027 346.094,228.027 347.5,228.5C 347.427,230.027 348.094,231.027 349.5,231.5C 349.03,235.35 348.03,239.017 346.5,242.5C 345.244,242.904 344.077,243.571 343,244.5C 342.228,244.355 341.561,244.022 341,243.5C 340.812,247.723 339.979,251.723 338.5,255.5C 336.824,256.183 336.157,257.517 336.5,259.5C 336.167,259.5 335.833,259.5 335.5,259.5C 334.325,259.281 333.325,259.614 332.5,260.5C 331.626,262.747 331.292,265.08 331.5,267.5C 329.952,267.821 329.285,268.821 329.5,270.5C 328.5,270.833 327.833,271.5 327.5,272.5C 326.167,272.5 324.833,272.5 323.5,272.5C 323.5,274.5 323.5,276.5 323.5,278.5C 321.821,278.285 320.821,278.952 320.5,280.5C 318.876,280.36 317.71,281.027 317,282.5C 316.667,282.167 316.333,281.833 316,281.5C 315.293,283.081 314.46,284.581 313.5,286C 314.747,287.494 314.747,288.994 313.5,290.5C 312.914,290.291 312.414,289.957 312,289.5C 311.355,290.646 310.522,291.646 309.5,292.5C 310.348,294.409 310.682,296.409 310.5,298.5C 309.167,298.5 307.833,298.5 306.5,298.5C 306.118,302.6 304.618,306.267 302,309.5C 301.667,309.167 301.333,308.833 301,308.5C 300.433,311.168 299.933,313.834 299.5,316.5C 299.167,316.5 298.833,316.5 298.5,316.5C 294.463,318.552 292.463,321.885 292.5,326.5C 290.801,326.34 289.134,326.506 287.5,327C 288.059,327.725 288.392,328.558 288.5,329.5C 287.246,331.334 286.579,333.334 286.5,335.5C 286.5,336.167 286.5,336.833 286.5,337.5C 286.672,338.492 286.338,339.158 285.5,339.5C 284.094,339.973 283.427,340.973 283.5,342.5C 282.094,342.973 281.427,343.973 281.5,345.5C 279.952,345.821 279.285,346.821 279.5,348.5C 278.094,348.973 277.427,349.973 277.5,351.5C 275.718,352.72 273.718,353.386 271.5,353.5C 242.67,352.668 213.67,352.168 184.5,352C 186.171,350.157 187.171,347.991 187.5,345.5C 187.5,344.833 187.5,344.167 187.5,343.5C 188.906,343.027 189.573,342.027 189.5,340.5C 189.328,339.508 189.662,338.842 190.5,338.5C 191.906,338.027 192.573,337.027 192.5,335.5C 192.328,334.508 192.662,333.842 193.5,333.5C 194.906,333.027 195.573,332.027 195.5,330.5C 196.906,330.027 197.573,329.027 197.5,327.5C 198.906,327.027 199.573,326.027 199.5,324.5C 201.25,323.341 202.25,321.674 202.5,319.5C 203.906,319.027 204.573,318.027 204.5,316.5C 205.906,316.027 206.573,315.027 206.5,313.5C 209.615,311.712 211.615,309.046 212.5,305.5C 212.5,304.833 212.5,304.167 212.5,303.5C 213.906,303.027 214.573,302.027 214.5,300.5C 215.5,299.833 216.5,299.167 217.5,298.5C 219.499,296.202 221.499,293.869 223.5,291.5C 224.853,288.489 226.186,285.489 227.5,282.5C 227.5,281.833 227.5,281.167 227.5,280.5C 228.906,280.027 229.573,279.027 229.5,277.5C 231.426,276.758 233.259,275.758 235,274.5C 237.251,270.761 238.751,266.761 239.5,262.5C 241.531,261.461 242.864,259.795 243.5,257.5C 243.5,256.833 243.5,256.167 243.5,255.5C 245.369,253.966 246.702,251.966 247.5,249.5C 247.328,248.508 247.662,247.842 248.5,247.5C 249.906,247.027 250.573,246.027 250.5,244.5C 251.906,244.027 252.573,243.027 252.5,241.5C 253.906,241.027 254.573,240.027 254.5,238.5C 255.833,236.5 255.833,234.5 254.5,232.5C 254.715,230.821 254.048,229.821 252.5,229.5C 252.13,226.733 250.796,224.733 248.5,223.5C 247.662,223.158 247.328,222.492 247.5,221.5C 247.573,219.973 246.906,218.973 245.5,218.5C 245.573,216.973 244.906,215.973 243.5,215.5C 242.662,215.158 242.328,214.492 242.5,213.5C 242.446,211.368 241.446,210.035 239.5,209.5C 239.5,209.167 239.5,208.833 239.5,208.5C 239.318,204.784 237.652,202.117 234.5,200.5C 233.189,197.865 231.522,195.531 229.5,193.5C 229.443,192.391 229.11,191.391 228.5,190.5C 227.903,187.573 226.236,185.573 223.5,184.5C 222.662,184.158 222.328,183.492 222.5,182.5C 221.558,178.935 219.891,175.935 217.5,173.5C 214.316,169.132 211.649,164.465 209.5,159.5C 208.726,155.16 206.393,152.16 202.5,150.5C 202.167,149.5 201.5,148.833 200.5,148.5C 199.924,142.515 199.424,136.515 199,130.5C 198.167,129.5 197.333,128.5 196.5,127.5C 195.335,128.491 194.168,129.491 193,130.5C 192.5,130.333 192,130.167 191.5,130C 190.845,127.841 189.512,126.341 187.5,125.5C 186.094,125.027 185.427,124.027 185.5,122.5C 184.962,120.883 184.629,119.216 184.5,117.5C 185.833,117.5 187.167,117.5 188.5,117.5 Z"/></g>
<g><path style="opacity:1" fill="#fe021d" d="M 400.5,119.5 C 401.167,119.833 401.833,120.167 402.5,120.5C 403.338,120.842 403.672,121.508 403.5,122.5C 403.738,124.404 404.738,125.738 406.5,126.5C 406.427,128.027 407.094,129.027 408.5,129.5C 408.427,131.027 409.094,132.027 410.5,132.5C 411.338,132.842 411.672,133.508 411.5,134.5C 411.427,136.027 412.094,137.027 413.5,137.5C 413.427,139.027 414.094,140.027 415.5,140.5C 416.338,140.842 416.672,141.508 416.5,142.5C 416.5,143.167 416.5,143.833 416.5,144.5C 416.707,147.239 417.707,149.573 419.5,151.5C 418.963,152.741 418.296,153.908 417.5,155C 418.424,156.811 419.257,156.645 420,154.5C 421.117,155.949 421.784,157.616 422,159.5C 422.333,158.5 422.667,157.5 423,156.5C 424.807,159.152 425.807,161.819 426,164.5C 428.042,166.436 430.209,168.103 432.5,169.5C 433.167,169.833 433.833,170.167 434.5,170.5C 434.427,172.027 435.094,173.027 436.5,173.5C 436.427,175.027 437.094,176.027 438.5,176.5C 438.427,178.027 439.094,179.027 440.5,179.5C 441.338,179.842 441.672,180.508 441.5,181.5C 441.427,183.027 442.094,184.027 443.5,184.5C 443.427,186.027 444.094,187.027 445.5,187.5C 445.5,188.167 445.5,188.833 445.5,189.5C 446.669,192.511 448.336,195.178 450.5,197.5C 453.207,202.999 455.707,208.666 458,214.5C 459.583,215.971 461.417,216.971 463.5,217.5C 464.167,217.833 464.833,218.167 465.5,218.5C 466.338,218.842 466.672,219.508 466.5,220.5C 466.427,222.027 467.094,223.027 468.5,223.5C 468.427,225.027 469.094,226.027 470.5,226.5C 471.338,226.842 471.672,227.508 471.5,228.5C 471.427,230.027 472.094,231.027 473.5,231.5C 473.5,234.167 473.5,236.833 473.5,239.5C 473.167,239.5 472.833,239.5 472.5,239.5C 470.976,240.174 469.642,241.174 468.5,242.5C 466.063,246.332 463.73,250.332 461.5,254.5C 460.575,253.359 459.741,253.359 459,254.5C 458.503,256.81 458.337,259.143 458.5,261.5C 458.5,262.167 458.5,262.833 458.5,263.5C 454.576,265.752 452.243,269.085 451.5,273.5C 449.973,273.427 448.973,274.094 448.5,275.5C 447.058,277.616 445.058,279.116 442.5,280C 442.957,280.414 443.291,280.914 443.5,281.5C 441.008,284.475 439.008,287.808 437.5,291.5C 436.726,292.711 435.893,292.711 435,291.5C 434.503,293.81 434.337,296.143 434.5,298.5C 433.508,298.328 432.842,298.662 432.5,299.5C 430.744,300.552 430.077,302.219 430.5,304.5C 427.654,304.809 426.154,306.475 426,309.5C 425.667,309.167 425.333,308.833 425,308.5C 424.506,310.134 424.34,311.801 424.5,313.5C 423.178,313.33 422.011,313.663 421,314.5C 420.808,316.577 420.308,318.577 419.5,320.5C 418.914,320.291 418.414,319.957 418,319.5C 417.023,321.74 416.523,324.073 416.5,326.5C 415.662,326.842 415.328,327.508 415.5,328.5C 414.167,328.5 412.833,328.5 411.5,328.5C 409.962,332.031 408.962,335.697 408.5,339.5C 406.621,340.895 405.621,342.895 405.5,345.5C 405.672,346.492 405.338,347.158 404.5,347.5C 401.477,347.105 400.477,348.105 401.5,350.5C 400.757,351.182 400.091,351.849 399.5,352.5C 369.498,352.667 339.498,352.5 309.5,352C 310.479,349.863 311.812,348.029 313.5,346.5C 314.421,344.223 315.087,341.89 315.5,339.5C 317.751,337.854 319.418,335.687 320.5,333C 321.766,332.691 322.933,332.191 324,331.5C 324.014,328.096 325.347,325.43 328,323.5C 328.939,320.4 330.105,317.4 331.5,314.5C 331.5,313.833 331.5,313.167 331.5,312.5C 332.906,312.027 333.573,311.027 333.5,309.5C 334.906,309.027 335.573,308.027 335.5,306.5C 335.328,305.508 335.662,304.842 336.5,304.5C 337.906,304.027 338.573,303.027 338.5,301.5C 338.328,300.508 338.662,299.842 339.5,299.5C 340.906,299.027 341.573,298.027 341.5,296.5C 342.906,296.027 343.573,295.027 343.5,293.5C 344.906,293.027 345.573,292.027 345.5,290.5C 346.906,290.027 347.573,289.027 347.5,287.5C 349.369,285.966 350.702,283.966 351.5,281.5C 352.906,281.027 353.573,280.027 353.5,278.5C 353.66,276.847 354.326,275.514 355.5,274.5C 356.906,274.027 357.573,273.027 357.5,271.5C 358.906,271.027 359.573,270.027 359.5,268.5C 360.906,268.027 361.573,267.027 361.5,265.5C 362.906,265.027 363.573,264.027 363.5,262.5C 364.906,262.027 365.573,261.027 365.5,259.5C 366.906,259.027 367.573,258.027 367.5,256.5C 369.104,255.713 369.771,254.38 369.5,252.5C 370.906,252.027 371.573,251.027 371.5,249.5C 372.906,249.027 373.573,248.027 373.5,246.5C 374.906,246.027 375.573,245.027 375.5,243.5C 375.833,243.5 376.167,243.5 376.5,243.5C 378.048,243.179 378.715,242.179 378.5,240.5C 380.143,240.48 381.476,241.147 382.5,242.5C 382.833,242 383.167,241.5 383.5,241C 382.972,238.138 382.305,235.304 381.5,232.5C 377.42,226.561 373.92,220.228 371,213.5C 370.23,212.402 369.397,212.402 368.5,213.5C 367.833,213.5 367.167,213.5 366.5,213.5C 365.662,213.158 365.328,212.492 365.5,211.5C 365.446,209.368 364.446,208.035 362.5,207.5C 361.662,207.158 361.328,206.492 361.5,205.5C 361.573,203.973 360.906,202.973 359.5,202.5C 359.573,200.973 358.906,199.973 357.5,199.5C 357.13,196.733 355.796,194.733 353.5,193.5C 353.5,193.167 353.5,192.833 353.5,192.5C 352.996,188.358 350.996,185.358 347.5,183.5C 347.167,182.167 346.833,180.833 346.5,179.5C 345.405,176.197 343.572,173.197 341,170.5C 340.138,168.913 339.471,167.246 339,165.5C 338.184,164.177 337.017,163.511 335.5,163.5C 334.606,160.608 333.272,157.941 331.5,155.5C 330.85,153.565 330.517,151.565 330.5,149.5C 329.448,149.649 328.448,149.483 327.5,149C 326.141,145.011 323.808,141.844 320.5,139.5C 320.25,137.326 319.25,135.659 317.5,134.5C 316.572,131.546 315.739,128.546 315,125.5C 314.667,125.833 314.333,126.167 314,126.5C 312.509,124.006 311.009,121.506 309.5,119C 339.875,118.182 370.209,118.349 400.5,119.5 Z"/></g>
<g><path style="opacity:0.451" fill="#fbaaa6" d="M 400.5,117.5 C 401.906,117.973 402.573,118.973 402.5,120.5C 401.833,120.167 401.167,119.833 400.5,119.5C 400.5,118.833 400.5,118.167 400.5,117.5 Z"/></g>
<g><path style="opacity:0.965" fill="#ed595d" d="M 151.5,118.5 C 152.167,118.833 152.833,119.167 153.5,119.5C 154.338,119.842 154.672,120.508 154.5,121.5C 154.5,122.167 154.5,122.833 154.5,123.5C 153.11,122.101 152.11,120.434 151.5,118.5 Z"/></g>
<g><path style="opacity:0.451" fill="#fea5a6" d="M 277.5,119.5 C 278.906,119.973 279.573,120.973 279.5,122.5C 278.833,122.167 278.167,121.833 277.5,121.5C 277.5,120.833 277.5,120.167 277.5,119.5 Z"/></g>
<g><path style="opacity:0.004" fill="#ffdfdb" d="M 307.5,121.5 C 307.833,121.5 308.167,121.5 308.5,121.5C 309.11,122.391 309.443,123.391 309.5,124.5C 308.094,124.027 307.427,123.027 307.5,121.5 Z"/></g>
<g><path style="opacity:0.298" fill="#ffb1b4" d="M 154.5,121.5 C 155.906,121.973 156.573,122.973 156.5,124.5C 155.833,124.167 155.167,123.833 154.5,123.5C 154.5,122.833 154.5,122.167 154.5,121.5 Z"/></g>
<g><path style="opacity:0.376" fill="#fbacaa" d="M 279.5,122.5 C 280.906,122.973 281.573,123.973 281.5,125.5C 280.094,125.027 279.427,124.027 279.5,122.5 Z"/></g>
<g><path style="opacity:0.878" fill="#fba2a4" d="M 309.5,124.5 C 311.796,125.733 313.13,127.733 313.5,130.5C 311.684,128.882 310.351,126.882 309.5,124.5 Z"/></g>
<g><path style="opacity:0.675" fill="#f49994" d="M 403.5,122.5 C 405.262,123.262 406.262,124.596 406.5,126.5C 404.738,125.738 403.738,124.404 403.5,122.5 Z"/></g>
<g><path style="opacity:1" fill="#ef7570" d="M 60.5,124.5 C 61.1667,124.5 61.8333,124.5 62.5,124.5C 64.4546,126.346 65.4546,128.679 65.5,131.5C 63.6002,129.381 61.9336,127.047 60.5,124.5 Z"/></g>
<g><path style="opacity:0.224" fill="#ffb9ba" d="M 156.5,124.5 C 157.906,124.973 158.573,125.973 158.5,127.5C 157.094,127.027 156.427,126.027 156.5,124.5 Z"/></g>
<g><path style="opacity:0.286" fill="#ffbdbc" d="M 281.5,125.5 C 282.906,125.973 283.573,126.973 283.5,128.5C 282.094,128.027 281.427,127.027 281.5,125.5 Z"/></g>
<g><path style="opacity:1" fill="#f62d2e" d="M 187.5,125.5 C 189.512,126.341 190.845,127.841 191.5,130C 192,130.167 192.5,130.333 193,130.5C 194.168,129.491 195.335,128.491 196.5,127.5C 197.333,128.5 198.167,129.5 199,130.5C 199.424,136.515 199.924,142.515 200.5,148.5C 199.662,148.158 199.328,147.492 199.5,146.5C 199.573,144.973 198.906,143.973 197.5,143.5C 197.573,141.973 196.906,140.973 195.5,140.5C 195.573,138.973 194.906,137.973 193.5,137.5C 192.662,137.158 192.328,136.492 192.5,135.5C 192.446,133.368 191.446,132.035 189.5,131.5C 188.4,130.395 187.733,129.062 187.5,127.5C 187.5,126.833 187.5,126.167 187.5,125.5 Z"/></g>
<g><path style="opacity:0.298" fill="#ffbdbe" d="M 406.5,126.5 C 407.906,126.973 408.573,127.973 408.5,129.5C 407.094,129.027 406.427,128.027 406.5,126.5 Z"/></g>
<g><path style="opacity:0.22" fill="#ffc7c8" d="M 283.5,128.5 C 284.906,128.973 285.573,129.973 285.5,131.5C 284.094,131.027 283.427,130.027 283.5,128.5 Z"/></g>
<g><path style="opacity:0.431" fill="#fa9fa2" d="M 159.5,129.5 C 160.906,129.973 161.573,130.973 161.5,132.5C 160.094,132.027 159.427,131.027 159.5,129.5 Z"/></g>
<g><path style="opacity:0.843" fill="#f6a2a0" d="M 189.5,131.5 C 191.446,132.035 192.446,133.368 192.5,135.5C 191.026,134.564 190.026,133.23 189.5,131.5 Z"/></g>
<g><path style="opacity:0.027" fill="#ffbdbf" d="M 313.5,130.5 C 314.906,130.973 315.573,131.973 315.5,133.5C 314.094,133.027 313.427,132.027 313.5,130.5 Z"/></g>
<g><path style="opacity:0.247" fill="#ffc2c1" d="M 408.5,129.5 C 409.906,129.973 410.573,130.973 410.5,132.5C 409.094,132.027 408.427,131.027 408.5,129.5 Z"/></g>
<g><path style="opacity:1" fill="#f66d6b" d="M 161.5,132.5 C 163.664,134.822 165.331,137.489 166.5,140.5C 163.203,138.867 161.536,136.2 161.5,132.5 Z"/></g>
<g><path style="opacity:0.333" fill="#ffb2b2" d="M 286.5,133.5 C 287.906,133.973 288.573,134.973 288.5,136.5C 287.833,136.167 287.167,135.833 286.5,135.5C 286.5,134.833 286.5,134.167 286.5,133.5 Z"/></g>
<g><path style="opacity:1" fill="#f17971" d="M 315.5,134.5 C 316.167,134.5 316.833,134.5 317.5,134.5C 319.25,135.659 320.25,137.326 320.5,139.5C 321.11,140.391 321.443,141.391 321.5,142.5C 319.147,140.14 317.147,137.473 315.5,134.5 Z"/></g>
<g><path style="opacity:0.224" fill="#ffc6c8" d="M 66.5,133.5 C 68.8218,134.802 70.1551,136.802 70.5,139.5C 68.6736,137.853 67.3403,135.853 66.5,133.5 Z"/></g>
<g><path style="opacity:0.314" fill="#fdb5b1" d="M 411.5,134.5 C 412.906,134.973 413.573,135.973 413.5,137.5C 412.094,137.027 411.427,136.027 411.5,134.5 Z"/></g>
<g><path style="opacity:1" fill="#e9474e" d="M 286.5,135.5 C 287.167,135.833 287.833,136.167 288.5,136.5C 289.338,136.842 289.672,137.508 289.5,138.5C 289.5,139.167 289.5,139.833 289.5,140.5C 288.11,139.101 287.11,137.434 286.5,135.5 Z"/></g>
<g><path style="opacity:0.082" fill="#ffd9d1" d="M 193.5,137.5 C 194.906,137.973 195.573,138.973 195.5,140.5C 194.094,140.027 193.427,139.027 193.5,137.5 Z"/></g>
<g><path style="opacity:0.843" fill="#f6a099" d="M 289.5,138.5 C 291.262,139.262 292.262,140.596 292.5,142.5C 291.5,141.833 290.5,141.167 289.5,140.5C 289.5,139.833 289.5,139.167 289.5,138.5 Z"/></g>
<g><path style="opacity:0.227" fill="#ffb9b9" d="M 413.5,137.5 C 414.906,137.973 415.573,138.973 415.5,140.5C 414.094,140.027 413.427,139.027 413.5,137.5 Z"/></g>
<g><path style="opacity:0.376" fill="#feb0b6" d="M 70.5,139.5 C 72.1942,140.527 73.5275,141.861 74.5,143.5C 74.5,144.167 74.5,144.833 74.5,145.5C 72.6736,143.853 71.3403,141.853 70.5,139.5 Z"/></g>
<g><path style="opacity:0.478" fill="#fea8a7" d="M 166.5,140.5 C 168.262,141.262 169.262,142.596 169.5,144.5C 167.738,143.738 166.738,142.404 166.5,140.5 Z"/></g>
<g><path style="opacity:0.129" fill="#ffc3d3" d="M 195.5,140.5 C 196.906,140.973 197.573,141.973 197.5,143.5C 196.094,143.027 195.427,142.027 195.5,140.5 Z"/></g>
<g><path style="opacity:0.22" fill="#ffc1c5" d="M 292.5,142.5 C 293.906,142.973 294.573,143.973 294.5,145.5C 293.094,145.027 292.427,144.027 292.5,142.5 Z"/></g>
<g><path style="opacity:0.004" fill="#ffeae7" d="M 321.5,143.5 C 322.906,143.973 323.573,144.973 323.5,146.5C 322.094,146.027 321.427,145.027 321.5,143.5 Z"/></g>
<g><path style="opacity:0.416" fill="#ffa3a3" d="M 416.5,142.5 C 417.906,142.973 418.573,143.973 418.5,145.5C 417.833,145.167 417.167,144.833 416.5,144.5C 416.5,143.833 416.5,143.167 416.5,142.5 Z"/></g>
<g><path style="opacity:0.173" fill="#fec0bd" d="M 197.5,143.5 C 198.906,143.973 199.573,144.973 199.5,146.5C 198.094,146.027 197.427,145.027 197.5,143.5 Z"/></g>
<g><path style="opacity:0.173" fill="#ffd1d2" d="M 169.5,144.5 C 170.906,144.973 171.573,145.973 171.5,147.5C 170.094,147.027 169.427,146.027 169.5,144.5 Z"/></g>
<g><path style="opacity:0.89" fill="#f69392" d="M 75.5,147.5 C 77.4456,148.035 78.4456,149.368 78.5,151.5C 77.0256,150.564 76.0256,149.23 75.5,147.5 Z"/></g>
<g><path style="opacity:0.408" fill="#fbb0a9" d="M 418.5,145.5 C 419.906,145.973 420.573,146.973 420.5,148.5C 419.094,148.027 418.427,147.027 418.5,145.5 Z"/></g>
<g><path style="opacity:0.047" fill="#ffdddc" d="M 323.5,146.5 C 324.906,146.973 325.573,147.973 325.5,149.5C 324.094,149.027 323.427,148.027 323.5,146.5 Z"/></g>
<g><path style="opacity:0.357" fill="#fdadae" d="M 295.5,147.5 C 296.906,147.973 297.573,148.973 297.5,150.5C 296.094,150.027 295.427,149.027 295.5,147.5 Z"/></g>
<g><path style="opacity:1" fill="#ec2834" d="M 320.5,139.5 C 323.808,141.844 326.141,145.011 327.5,149C 328.448,149.483 329.448,149.649 330.5,149.5C 330.517,151.565 330.85,153.565 331.5,155.5C 330.833,155.5 330.167,155.5 329.5,155.5C 329.573,153.973 328.906,152.973 327.5,152.5C 327.573,150.973 326.906,149.973 325.5,149.5C 325.573,147.973 324.906,146.973 323.5,146.5C 323.573,144.973 322.906,143.973 321.5,143.5C 321.5,143.167 321.5,142.833 321.5,142.5C 321.443,141.391 321.11,140.391 320.5,139.5 Z"/></g>
<g><path style="opacity:0.086" fill="#ffd0d2" d="M 200.5,148.5 C 201.5,148.833 202.167,149.5 202.5,150.5C 202.5,150.833 202.5,151.167 202.5,151.5C 201.094,151.027 200.427,150.027 200.5,148.5 Z"/></g>
<g><path style="opacity:0.224" fill="#ffc1c3" d="M 172.5,149.5 C 173.906,149.973 174.573,150.973 174.5,152.5C 173.094,152.027 172.427,151.027 172.5,149.5 Z"/></g>
<g><path style="opacity:1" fill="#f24947" d="M 202.5,150.5 C 206.393,152.16 208.726,155.16 209.5,159.5C 208.833,159.5 208.167,159.5 207.5,159.5C 207.167,158.833 206.833,158.167 206.5,157.5C 206.446,155.368 205.446,154.035 203.5,153.5C 202.662,153.158 202.328,152.492 202.5,151.5C 202.5,151.167 202.5,150.833 202.5,150.5 Z"/></g>
<g><path style="opacity:0.078" fill="#ffd8d6" d="M 325.5,149.5 C 326.906,149.973 327.573,150.973 327.5,152.5C 326.094,152.027 325.427,151.027 325.5,149.5 Z"/></g>
<g><path style="opacity:1" fill="#f7413e" d="M 74.5,143.5 C 75.4959,143.414 76.3292,143.748 77,144.5C 78.0395,146.746 79.2062,148.913 80.5,151C 84.6799,153.173 87.0132,156.673 87.5,161.5C 88.1924,160.975 88.6924,160.308 89,159.5C 89.7504,160.126 90.5838,160.626 91.5,161C 89.3426,162.085 89.1759,163.251 91,164.5C 91.7431,162.355 92.5765,162.189 93.5,164C 92.1153,165.597 91.4486,167.43 91.5,169.5C 90.8333,169.5 90.1667,169.5 89.5,169.5C 88.6618,169.158 88.3284,168.492 88.5,167.5C 88.4456,165.368 87.4456,164.035 85.5,163.5C 84.6618,163.158 84.3284,162.492 84.5,161.5C 84.573,159.973 83.9063,158.973 82.5,158.5C 82.573,156.973 81.9063,155.973 80.5,155.5C 79.3263,154.486 78.6596,153.153 78.5,151.5C 78.4456,149.368 77.4456,148.035 75.5,147.5C 74.6618,147.158 74.3284,146.492 74.5,145.5C 74.5,144.833 74.5,144.167 74.5,143.5 Z"/></g>
<g><path style="opacity:0.282" fill="#ffb4b4" d="M 297.5,150.5 C 298.906,150.973 299.573,151.973 299.5,153.5C 298.094,153.027 297.427,152.027 297.5,150.5 Z"/></g>
<g><path style="opacity:0.573" fill="#f98e92" d="M 421.5,150.5 C 422.906,150.973 423.573,151.973 423.5,153.5C 422.094,153.027 421.427,152.027 421.5,150.5 Z"/></g>
<g><path style="opacity:0.788" fill="#f5a7a5" d="M 203.5,153.5 C 205.446,154.035 206.446,155.368 206.5,157.5C 205.026,156.564 204.026,155.23 203.5,153.5 Z"/></g>
<g><path style="opacity:0.161" fill="#ffc9c9" d="M 174.5,152.5 C 175.906,152.973 176.573,153.973 176.5,155.5C 175.833,155.167 175.167,154.833 174.5,154.5C 174.5,153.833 174.5,153.167 174.5,152.5 Z"/></g>
<g><path style="opacity:0.122" fill="#fdd0cb" d="M 327.5,152.5 C 328.906,152.973 329.573,153.973 329.5,155.5C 328.094,155.027 327.427,154.027 327.5,152.5 Z"/></g>
<g><path style="opacity:0.208" fill="#ffc4ca" d="M 299.5,153.5 C 300.906,153.973 301.573,154.973 301.5,156.5C 300.094,156.027 299.427,155.027 299.5,153.5 Z"/></g>
<g><path style="opacity:0.494" fill="#fda8aa" d="M 423.5,153.5 C 425.262,154.262 426.262,155.596 426.5,157.5C 424.738,156.738 423.738,155.404 423.5,153.5 Z"/></g>
<g><path style="opacity:0.976" fill="#ee6a6c" d="M 174.5,154.5 C 175.167,154.833 175.833,155.167 176.5,155.5C 177.89,156.899 178.89,158.566 179.5,160.5C 176.893,159.288 175.226,157.288 174.5,154.5 Z"/></g>
<g><path style="opacity:0.043" fill="#ffddde" d="M 80.5,155.5 C 81.9063,155.973 82.573,156.973 82.5,158.5C 81.0937,158.027 80.427,157.027 80.5,155.5 Z"/></g>
<g><path style="opacity:0.808" fill="#f07778" d="M 329.5,155.5 C 330.167,155.5 330.833,155.5 331.5,155.5C 333.272,157.941 334.606,160.608 335.5,163.5C 335.5,163.833 335.5,164.167 335.5,164.5C 332.769,162.054 330.769,159.054 329.5,155.5 Z"/></g>
<g><path style="opacity:0.192" fill="#ffc9ca" d="M 426.5,157.5 C 427.906,157.973 428.573,158.973 428.5,160.5C 427.094,160.027 426.427,159.027 426.5,157.5 Z"/></g>
<g><path style="opacity:0.075" fill="#ffd3d5" d="M 82.5,158.5 C 83.9063,158.973 84.573,159.973 84.5,161.5C 83.0937,161.027 82.427,160.027 82.5,158.5 Z"/></g>
<g><path style="opacity:0.306" fill="#ffafb0" d="M 302.5,158.5 C 303.906,158.973 304.573,159.973 304.5,161.5C 303.094,161.027 302.427,160.027 302.5,158.5 Z"/></g>
<g><path style="opacity:0.702" fill="#fca9ae" d="M 85.5,163.5 C 87.4456,164.035 88.4456,165.368 88.5,167.5C 87.0256,166.564 86.0256,165.23 85.5,163.5 Z"/></g>
<g><path style="opacity:0.984" fill="#f47875" d="M 179.5,160.5 C 181.664,162.822 183.331,165.489 184.5,168.5C 181.203,166.867 179.536,164.2 179.5,160.5 Z"/></g>
<g><path style="opacity:1" fill="#f42e34" d="M 416.5,144.5 C 417.167,144.833 417.833,145.167 418.5,145.5C 418.427,147.027 419.094,148.027 420.5,148.5C 421.338,148.842 421.672,149.508 421.5,150.5C 421.427,152.027 422.094,153.027 423.5,153.5C 423.738,155.404 424.738,156.738 426.5,157.5C 426.427,159.027 427.094,160.027 428.5,160.5C 429.338,160.842 429.672,161.508 429.5,162.5C 429.427,164.027 430.094,165.027 431.5,165.5C 432.338,165.842 432.672,166.508 432.5,167.5C 432.5,168.167 432.5,168.833 432.5,169.5C 430.209,168.103 428.042,166.436 426,164.5C 425.807,161.819 424.807,159.152 423,156.5C 422.667,157.5 422.333,158.5 422,159.5C 421.784,157.616 421.117,155.949 420,154.5C 419.257,156.645 418.424,156.811 417.5,155C 418.296,153.908 418.963,152.741 419.5,151.5C 417.707,149.573 416.707,147.239 416.5,144.5 Z"/></g>
<g><path style="opacity:0.251" fill="#ffbebb" d="M 429.5,162.5 C 430.906,162.973 431.573,163.973 431.5,165.5C 430.094,165.027 429.427,164.027 429.5,162.5 Z"/></g>
<g><path style="opacity:0.557" fill="#f47f81" d="M 304.5,161.5 C 305.89,162.899 306.89,164.566 307.5,166.5C 305.241,165.656 304.241,163.989 304.5,161.5 Z"/></g>
<g><path style="opacity:0.784" fill="#faa9ad" d="M 335.5,165.5 C 337.446,166.035 338.446,167.368 338.5,169.5C 337.026,168.564 336.026,167.23 335.5,165.5 Z"/></g>
<g><path style="opacity:0.129" fill="#fec1bf" d="M 207.5,159.5 C 208.167,159.5 208.833,159.5 209.5,159.5C 211.649,164.465 214.316,169.132 217.5,173.5C 217.5,173.833 217.5,174.167 217.5,174.5C 213.416,170.067 210.082,165.067 207.5,159.5 Z"/></g>
<g><path style="opacity:0.514" fill="#fc9ba1" d="M 307.5,166.5 C 308.906,166.973 309.573,167.973 309.5,169.5C 308.094,169.027 307.427,168.027 307.5,166.5 Z"/></g>
<g><path style="opacity:0.804" fill="#f49d95" d="M 89.5,169.5 C 90.1667,169.5 90.8333,169.5 91.5,169.5C 91.8333,170.833 92.1667,172.167 92.5,173.5C 91.0256,172.564 90.0256,171.23 89.5,169.5 Z"/></g>
<g><path style="opacity:0.431" fill="#fda8a7" d="M 432.5,167.5 C 433.906,167.973 434.573,168.973 434.5,170.5C 433.833,170.167 433.167,169.833 432.5,169.5C 432.5,168.833 432.5,168.167 432.5,167.5 Z"/></g>
<g><path style="opacity:0.376" fill="#feabad" d="M 184.5,168.5 C 185.906,168.973 186.573,169.973 186.5,171.5C 185.094,171.027 184.427,170.027 184.5,168.5 Z"/></g>
<g><path style="opacity:0.439" fill="#ffafaf" d="M 309.5,169.5 C 311.262,170.262 312.262,171.596 312.5,173.5C 310.738,172.738 309.738,171.404 309.5,169.5 Z"/></g>
<g><path style="opacity:0.384" fill="#ffb0b0" d="M 434.5,170.5 C 435.906,170.973 436.573,171.973 436.5,173.5C 435.094,173.027 434.427,172.027 434.5,170.5 Z"/></g>
<g><path style="opacity:0.294" fill="#ffb5b1" d="M 186.5,171.5 C 187.906,171.973 188.573,172.973 188.5,174.5C 187.833,174.167 187.167,173.833 186.5,173.5C 186.5,172.833 186.5,172.167 186.5,171.5 Z"/></g>
<g><path style="opacity:1" fill="#f57e7b" d="M 217.5,173.5 C 219.891,175.935 221.558,178.935 222.5,182.5C 220.336,180.178 218.669,177.511 217.5,174.5C 217.5,174.167 217.5,173.833 217.5,173.5 Z"/></g>
<g><path style="opacity:0.067" fill="#ffd8d8" d="M 339.5,171.5 C 340.906,171.973 341.573,172.973 341.5,174.5C 340.094,174.027 339.427,173.027 339.5,171.5 Z"/></g>
<g><path style="opacity:1" fill="#ef4946" d="M 335.5,163.5 C 337.017,163.511 338.184,164.177 339,165.5C 339.471,167.246 340.138,168.913 341,170.5C 343.572,173.197 345.405,176.197 346.5,179.5C 345.833,179.5 345.167,179.5 344.5,179.5C 343.662,179.158 343.328,178.492 343.5,177.5C 343.573,175.973 342.906,174.973 341.5,174.5C 341.573,172.973 340.906,171.973 339.5,171.5C 338.662,171.158 338.328,170.492 338.5,169.5C 338.446,167.368 337.446,166.035 335.5,165.5C 335.5,165.167 335.5,164.833 335.5,164.5C 335.5,164.167 335.5,163.833 335.5,163.5 Z"/></g>
<g><path style="opacity:0.341" fill="#feb6bd" d="M 436.5,173.5 C 437.906,173.973 438.573,174.973 438.5,176.5C 437.094,176.027 436.427,175.027 436.5,173.5 Z"/></g>
<g><path style="opacity:0.541" fill="#f39594" d="M 92.5,174.5 C 94.9118,174.694 95.9118,176.027 95.5,178.5C 94.5116,177.205 93.5116,175.872 92.5,174.5 Z"/></g>
<g><path style="opacity:0.235" fill="#ffc3bf" d="M 188.5,174.5 C 189.906,174.973 190.573,175.973 190.5,177.5C 189.094,177.027 188.427,176.027 188.5,174.5 Z"/></g>
<g><path style="opacity:0.106" fill="#ffcece" d="M 341.5,174.5 C 342.906,174.973 343.573,175.973 343.5,177.5C 342.094,177.027 341.427,176.027 341.5,174.5 Z"/></g>
<g><path style="opacity:0.282" fill="#ffbdc1" d="M 313.5,175.5 C 314.906,175.973 315.573,176.973 315.5,178.5C 314.094,178.027 313.427,177.027 313.5,175.5 Z"/></g>
<g><path style="opacity:0.965" fill="#f59f9a" d="M 95.5,178.5 C 98.1379,180.418 99.8046,183.085 100.5,186.5C 98.347,184.206 96.6803,181.54 95.5,178.5 Z"/></g>
<g><path style="opacity:0.298" fill="#ffbec2" d="M 438.5,176.5 C 439.906,176.973 440.573,177.973 440.5,179.5C 439.094,179.027 438.427,178.027 438.5,176.5 Z"/></g>
<g><path style="opacity:1" fill="#ea3339" d="M 186.5,173.5 C 187.167,173.833 187.833,174.167 188.5,174.5C 188.427,176.027 189.094,177.027 190.5,177.5C 191.338,177.842 191.672,178.508 191.5,179.5C 191.5,180.167 191.5,180.833 191.5,181.5C 190.417,181.461 189.417,181.127 188.5,180.5C 187.579,178.223 186.913,175.89 186.5,173.5 Z"/></g>
<g><path style="opacity:0.753" fill="#ffa3a4" d="M 344.5,179.5 C 345.167,179.5 345.833,179.5 346.5,179.5C 346.833,180.833 347.167,182.167 347.5,183.5C 346.026,182.564 345.026,181.23 344.5,179.5 Z"/></g>
<g><path style="opacity:0.2" fill="#fec9c6" d="M 315.5,178.5 C 316.906,178.973 317.573,179.973 317.5,181.5C 316.094,181.027 315.427,180.027 315.5,178.5 Z"/></g>
<g><path style="opacity:0.42" fill="#faaea9" d="M 191.5,179.5 C 192.906,179.973 193.573,180.973 193.5,182.5C 192.833,182.167 192.167,181.833 191.5,181.5C 191.5,180.833 191.5,180.167 191.5,179.5 Z"/></g>
<g><path style="opacity:1" fill="#e64347" d="M 191.5,181.5 C 192.167,181.833 192.833,182.167 193.5,182.5C 194.401,183.29 195.068,184.29 195.5,185.5C 195.427,187.027 196.094,188.027 197.5,188.5C 197.5,189.167 197.5,189.833 197.5,190.5C 194.759,188.025 192.759,185.025 191.5,181.5 Z"/></g>
<g><path style="opacity:0.396" fill="#fea9b0" d="M 441.5,181.5 C 442.906,181.973 443.573,182.973 443.5,184.5C 442.094,184.027 441.427,183.027 441.5,181.5 Z"/></g>
<g><path style="opacity:0.306" fill="#feb0b1" d="M 318.5,183.5 C 319.906,183.973 320.573,184.973 320.5,186.5C 319.094,186.027 318.427,185.027 318.5,183.5 Z"/></g>
<g><path style="opacity:0.894" fill="#fba3a1" d="M 100.5,186.5 C 101.376,186.369 102.043,186.702 102.5,187.5C 104.297,189.955 105.63,192.622 106.5,195.5C 103.769,193.054 101.769,190.054 100.5,186.5 Z"/></g>
<g><path style="opacity:1" fill="#f47c79" d="M 223.5,184.5 C 226.236,185.573 227.903,187.573 228.5,190.5C 228.167,190.5 227.833,190.5 227.5,190.5C 225.684,188.882 224.351,186.882 223.5,184.5 Z"/></g>
<g><path style="opacity:0.318" fill="#ffb4b8" d="M 443.5,184.5 C 444.906,184.973 445.573,185.973 445.5,187.5C 444.094,187.027 443.427,186.027 443.5,184.5 Z"/></g>
<g><path style="opacity:0.337" fill="#ffbabb" d="M 195.5,185.5 C 196.906,185.973 197.573,186.973 197.5,188.5C 196.094,188.027 195.427,187.027 195.5,185.5 Z"/></g>
<g><path style="opacity:0.251" fill="#ffbdbb" d="M 320.5,186.5 C 321.906,186.973 322.573,187.973 322.5,189.5C 321.094,189.027 320.427,188.027 320.5,186.5 Z"/></g>
<g><path style="opacity:0.918" fill="#ef706f" d="M 347.5,183.5 C 350.996,185.358 352.996,188.358 353.5,192.5C 350.759,190.025 348.759,187.025 347.5,183.5 Z"/></g>
<g><path style="opacity:0.235" fill="#ffc0c0" d="M 445.5,187.5 C 446.906,187.973 447.573,188.973 447.5,190.5C 446.833,190.167 446.167,189.833 445.5,189.5C 445.5,188.833 445.5,188.167 445.5,187.5 Z"/></g>
<g><path style="opacity:0.278" fill="#ffbfc4" d="M 197.5,188.5 C 198.906,188.973 199.573,189.973 199.5,191.5C 198.833,191.167 198.167,190.833 197.5,190.5C 197.5,189.833 197.5,189.167 197.5,188.5 Z"/></g>
<g><path style="opacity:1" fill="#f06e68" d="M 445.5,189.5 C 446.167,189.833 446.833,190.167 447.5,190.5C 449.664,192.822 451.331,195.489 452.5,198.5C 451.833,198.167 451.167,197.833 450.5,197.5C 448.336,195.178 446.669,192.511 445.5,189.5 Z"/></g>
<g><path style="opacity:0.114" fill="#ffc4bf" d="M 227.5,190.5 C 227.833,190.5 228.167,190.5 228.5,190.5C 229.11,191.391 229.443,192.391 229.5,193.5C 228.094,193.027 227.427,192.027 227.5,190.5 Z"/></g>
<g><path style="opacity:0.227" fill="#fec9cc" d="M 199.5,191.5 C 200.906,191.973 201.573,192.973 201.5,194.5C 200.094,194.027 199.427,193.027 199.5,191.5 Z"/></g>
<g><path style="opacity:0.471" fill="#fb9d9d" d="M 323.5,191.5 C 324.906,191.973 325.573,192.973 325.5,194.5C 324.094,194.027 323.427,193.027 323.5,191.5 Z"/></g>
<g><path style="opacity:0.416" fill="#ffa3a2" d="M 325.5,194.5 C 326.906,194.973 327.573,195.973 327.5,197.5C 326.094,197.027 325.427,196.027 325.5,194.5 Z"/></g>
<g><path style="opacity:0.89" fill="#f8a4a0" d="M 107.5,197.5 C 109.144,197.81 110.144,198.81 110.5,200.5C 111.11,201.391 111.443,202.391 111.5,203.5C 109.684,201.882 108.351,199.882 107.5,197.5 Z"/></g>
<g><path style="opacity:0.294" fill="#ffb3bc" d="M 202.5,196.5 C 203.906,196.973 204.573,197.973 204.5,199.5C 203.833,199.167 203.167,198.833 202.5,198.5C 202.5,197.833 202.5,197.167 202.5,196.5 Z"/></g>
<g><path style="opacity:0.239" fill="#ffbebe" d="M 229.5,193.5 C 231.522,195.531 233.189,197.865 234.5,200.5C 234.5,200.833 234.5,201.167 234.5,201.5C 232.05,199.371 230.383,196.704 229.5,193.5 Z"/></g>
<g><path style="opacity:0.051" fill="#ffc5c5" d="M 353.5,193.5 C 355.796,194.733 357.13,196.733 357.5,199.5C 355.684,197.882 354.351,195.882 353.5,193.5 Z"/></g>
<g><path style="opacity:0.361" fill="#ffada9" d="M 327.5,197.5 C 328.906,197.973 329.573,198.973 329.5,200.5C 328.094,200.027 327.427,199.027 327.5,197.5 Z"/></g>
<g><path style="opacity:0.212" fill="#ffb6c2" d="M 204.5,199.5 C 205.906,199.973 206.573,200.973 206.5,202.5C 205.094,202.027 204.427,201.027 204.5,199.5 Z"/></g>
<g><path style="opacity:0.106" fill="#ffd5cf" d="M 357.5,199.5 C 358.906,199.973 359.573,200.973 359.5,202.5C 358.094,202.027 357.427,201.027 357.5,199.5 Z"/></g>
<g><path style="opacity:1" fill="#f36863" d="M 234.5,200.5 C 237.652,202.117 239.318,204.784 239.5,208.5C 237.453,206.45 235.786,204.117 234.5,201.5C 234.5,201.167 234.5,200.833 234.5,200.5 Z"/></g>
<g><path style="opacity:0.29" fill="#ffbcbf" d="M 329.5,200.5 C 330.906,200.973 331.573,201.973 331.5,203.5C 330.094,203.027 329.427,202.027 329.5,200.5 Z"/></g>
<g><path style="opacity:0.592" fill="#fe9fa2" d="M 453.5,200.5 C 455.262,201.262 456.262,202.596 456.5,204.5C 454.738,203.738 453.738,202.404 453.5,200.5 Z"/></g>
<g><path style="opacity:0.153" fill="#ffc8cc" d="M 206.5,202.5 C 207.906,202.973 208.573,203.973 208.5,205.5C 207.094,205.027 206.427,204.027 206.5,202.5 Z"/></g>
<g><path style="opacity:0.157" fill="#ffc7c8" d="M 359.5,202.5 C 360.906,202.973 361.573,203.973 361.5,205.5C 360.094,205.027 359.427,204.027 359.5,202.5 Z"/></g>
<g><path style="opacity:1" fill="#ef3636" d="M 202.5,198.5 C 203.167,198.833 203.833,199.167 204.5,199.5C 204.427,201.027 205.094,202.027 206.5,202.5C 206.427,204.027 207.094,205.027 208.5,205.5C 209.338,205.842 209.672,206.508 209.5,207.5C 207.983,207.489 206.816,206.823 206,205.5C 205.174,207.405 204.007,207.739 202.5,206.5C 203.213,203.904 203.213,201.237 202.5,198.5 Z"/></g>
<g><path style="opacity:0.212" fill="#ffc8bf" d="M 331.5,203.5 C 332.906,203.973 333.573,204.973 333.5,206.5C 332.094,206.027 331.427,205.027 331.5,203.5 Z"/></g>
<g><path style="opacity:0.239" fill="#ffc8c5" d="M 456.5,204.5 C 457.906,204.973 458.573,205.973 458.5,207.5C 457.094,207.027 456.427,206.027 456.5,204.5 Z"/></g>
<g><path style="opacity:0.816" fill="#fa9997" d="M 362.5,207.5 C 364.446,208.035 365.446,209.368 365.5,211.5C 364.026,210.564 363.026,209.23 362.5,207.5 Z"/></g>
<g><path style="opacity:0.133" fill="#ffd0c9" d="M 112.5,205.5 C 114.822,206.802 116.155,208.802 116.5,211.5C 114.674,209.853 113.34,207.853 112.5,205.5 Z"/></g>
<g><path style="opacity:1" fill="#f22b33" d="M 450.5,197.5 C 451.167,197.833 451.833,198.167 452.5,198.5C 453.338,198.842 453.672,199.508 453.5,200.5C 453.738,202.404 454.738,203.738 456.5,204.5C 456.427,206.027 457.094,207.027 458.5,207.5C 458.427,209.027 459.094,210.027 460.5,210.5C 461.338,210.842 461.672,211.508 461.5,212.5C 461.427,214.027 462.094,215.027 463.5,215.5C 463.5,216.167 463.5,216.833 463.5,217.5C 461.417,216.971 459.583,215.971 458,214.5C 455.707,208.666 453.207,202.999 450.5,197.5 Z"/></g>
<g><path style="opacity:0.369" fill="#feb4b7" d="M 209.5,207.5 C 210.906,207.973 211.573,208.973 211.5,210.5C 210.833,210.167 210.167,209.833 209.5,209.5C 209.5,208.833 209.5,208.167 209.5,207.5 Z"/></g>
<g><path style="opacity:0.894" fill="#f6918d" d="M 239.5,209.5 C 241.446,210.035 242.446,211.368 242.5,213.5C 241.026,212.564 240.026,211.23 239.5,209.5 Z"/></g>
<g><path style="opacity:0.18" fill="#ffcdcb" d="M 458.5,207.5 C 459.906,207.973 460.573,208.973 460.5,210.5C 459.094,210.027 458.427,209.027 458.5,207.5 Z"/></g>
<g><path style="opacity:0.31" fill="#ffbab7" d="M 334.5,208.5 C 335.906,208.973 336.573,209.973 336.5,211.5C 335.833,211.167 335.167,210.833 334.5,210.5C 334.5,209.833 334.5,209.167 334.5,208.5 Z"/></g>
<g><path style="opacity:1" fill="#f53b39" d="M 110.5,200.5 C 112.417,201.909 114.25,203.576 116,205.5C 117.266,210.186 120.433,212.519 125.5,212.5C 124.675,213.386 123.675,213.719 122.5,213.5C 122.517,215.565 122.85,217.565 123.5,219.5C 122.833,219.5 122.167,219.5 121.5,219.5C 121.573,217.973 120.906,216.973 119.5,216.5C 118.662,216.158 118.328,215.492 118.5,214.5C 118.573,212.973 117.906,211.973 116.5,211.5C 116.155,208.802 114.822,206.802 112.5,205.5C 111.662,205.158 111.328,204.492 111.5,203.5C 111.443,202.391 111.11,201.391 110.5,200.5 Z"/></g>
<g><path style="opacity:1" fill="#ec5d5a" d="M 334.5,210.5 C 335.167,210.833 335.833,211.167 336.5,211.5C 337.89,212.899 338.89,214.566 339.5,216.5C 336.893,215.288 335.226,213.288 334.5,210.5 Z"/></g>
<g><path style="opacity:0.09" fill="#ffcdcd" d="M 116.5,211.5 C 117.906,211.973 118.573,212.973 118.5,214.5C 117.094,214.027 116.427,213.027 116.5,211.5 Z"/></g>
<g><path style="opacity:0.929" fill="#fc9d9b" d="M 366.5,213.5 C 367.167,213.5 367.833,213.5 368.5,213.5C 369.167,215.5 369.833,217.5 370.5,219.5C 368.684,217.882 367.351,215.882 366.5,213.5 Z"/></g>
<g><path style="opacity:1" fill="#f43d3c" d="M 376.5,243.5 C 377.11,242.609 377.443,241.609 377.5,240.5C 377.328,239.508 377.662,238.842 378.5,238.5C 379.906,238.027 380.573,237.027 380.5,235.5C 379.075,234.078 378.075,232.411 377.5,230.5C 377.446,228.368 376.446,227.035 374.5,226.5C 373.662,226.158 373.328,225.492 373.5,224.5C 373.573,222.973 372.906,221.973 371.5,221.5C 370.662,221.158 370.328,220.492 370.5,219.5C 369.833,217.5 369.167,215.5 368.5,213.5C 369.397,212.402 370.23,212.402 371,213.5C 373.92,220.228 377.42,226.561 381.5,232.5C 382.305,235.304 382.972,238.138 383.5,241C 383.167,241.5 382.833,242 382.5,242.5C 381.476,241.147 380.143,240.48 378.5,240.5C 378.715,242.179 378.048,243.179 376.5,243.5 Z"/></g>
<g><path style="opacity:0.239" fill="#fec7b7" d="M 461.5,212.5 C 462.906,212.973 463.573,213.973 463.5,215.5C 462.094,215.027 461.427,214.027 461.5,212.5 Z"/></g>
<g><path style="opacity:0.024" fill="#ffc4be" d="M 243.5,215.5 C 244.906,215.973 245.573,216.973 245.5,218.5C 244.094,218.027 243.427,217.027 243.5,215.5 Z"/></g>
<g><path style="opacity:0.004" fill="#ffe4e3" d="M 119.5,216.5 C 120.906,216.973 121.573,217.973 121.5,219.5C 120.094,219.027 119.427,218.027 119.5,216.5 Z"/></g>
<g><path style="opacity:0.459" fill="#fd9fa4" d="M 214.5,215.5 C 215.906,215.973 216.573,216.973 216.5,218.5C 215.094,218.027 214.427,217.027 214.5,215.5 Z"/></g>
<g><path style="opacity:0.165" fill="#ffcbcd" d="M 463.5,215.5 C 464.906,215.973 465.573,216.973 465.5,218.5C 464.833,218.167 464.167,217.833 463.5,217.5C 463.5,216.833 463.5,216.167 463.5,215.5 Z"/></g>
<g><path style="opacity:1" fill="#ef3c3f" d="M 209.5,209.5 C 210.167,209.833 210.833,210.167 211.5,210.5C 212.89,211.899 213.89,213.566 214.5,215.5C 214.427,217.027 215.094,218.027 216.5,218.5C 216.5,219.167 216.5,219.833 216.5,220.5C 215.5,220.5 214.5,220.5 213.5,220.5C 212.999,216.505 211.666,212.838 209.5,209.5 Z"/></g>
<g><path style="opacity:0.49" fill="#faa6a7" d="M 339.5,216.5 C 340.906,216.973 341.573,217.973 341.5,219.5C 340.094,219.027 339.427,218.027 339.5,216.5 Z"/></g>
<g><path style="opacity:0.835" fill="#f69b9a" d="M 121.5,219.5 C 122.167,219.5 122.833,219.5 123.5,219.5C 123.5,220.5 123.5,221.5 123.5,222.5C 122.599,221.71 121.932,220.71 121.5,219.5 Z"/></g>
<g><path style="opacity:0.376" fill="#ffb4b6" d="M 216.5,218.5 C 218.262,219.262 219.262,220.596 219.5,222.5C 218.5,221.833 217.5,221.167 216.5,220.5C 216.5,219.833 216.5,219.167 216.5,218.5 Z"/></g>
<g><path style="opacity:0.2" fill="#fcbfbd" d="M 245.5,218.5 C 246.906,218.973 247.573,219.973 247.5,221.5C 246.094,221.027 245.427,220.027 245.5,218.5 Z"/></g>
<g><path style="opacity:0.424" fill="#fba4a4" d="M 341.5,219.5 C 342.906,219.973 343.573,220.973 343.5,222.5C 342.094,222.027 341.427,221.027 341.5,219.5 Z"/></g>
<g><path style="opacity:0.38" fill="#ffb5ac" d="M 466.5,220.5 C 467.906,220.973 468.573,221.973 468.5,223.5C 467.094,223.027 466.427,222.027 466.5,220.5 Z"/></g>
<g><path style="opacity:0.878" fill="#fa9c9c" d="M 248.5,223.5 C 250.796,224.733 252.13,226.733 252.5,229.5C 250.684,227.882 249.351,225.882 248.5,223.5 Z"/></g>
<g><path style="opacity:0.059" fill="#ffdfd4" d="M 371.5,221.5 C 372.906,221.973 373.573,222.973 373.5,224.5C 372.094,224.027 371.427,223.027 371.5,221.5 Z"/></g>
<g><path style="opacity:0.761" fill="#f58a88" d="M 123.5,222.5 C 124.496,222.414 125.329,222.748 126,223.5C 127.18,225.86 128.347,228.193 129.5,230.5C 129.5,230.833 129.5,231.167 129.5,231.5C 127.265,228.709 125.265,225.709 123.5,222.5 Z"/></g>
<g><path style="opacity:0.349" fill="#fdb3b2" d="M 343.5,222.5 C 344.906,222.973 345.573,223.973 345.5,225.5C 344.094,225.027 343.427,224.027 343.5,222.5 Z"/></g>
<g><path style="opacity:0.353" fill="#ffb9b5" d="M 468.5,223.5 C 469.906,223.973 470.573,224.973 470.5,226.5C 469.094,226.027 468.427,225.027 468.5,223.5 Z"/></g>
<g><path style="opacity:0.224" fill="#ffc4c4" d="M 220.5,224.5 C 221.906,224.973 222.573,225.973 222.5,227.5C 221.094,227.027 220.427,226.027 220.5,224.5 Z"/></g>
<g><path style="opacity:0.682" fill="#feacab" d="M 374.5,226.5 C 376.446,227.035 377.446,228.368 377.5,230.5C 376.026,229.564 375.026,228.23 374.5,226.5 Z"/></g>
<g><path style="opacity:0.275" fill="#fdb8b8" d="M 345.5,225.5 C 346.906,225.973 347.573,226.973 347.5,228.5C 346.094,228.027 345.427,227.027 345.5,225.5 Z"/></g>
<g><path style="opacity:1" fill="#f14347" d="M 216.5,220.5 C 217.5,221.167 218.5,221.833 219.5,222.5C 220.338,222.842 220.672,223.508 220.5,224.5C 220.427,226.027 221.094,227.027 222.5,227.5C 222.427,229.027 223.094,230.027 224.5,230.5C 225.338,230.842 225.672,231.508 225.5,232.5C 223.528,231.549 221.528,230.549 219.5,229.5C 218.87,226.312 217.87,223.312 216.5,220.5 Z"/></g>
<g><path style="opacity:0.161" fill="#ffc6cb" d="M 222.5,227.5 C 223.906,227.973 224.573,228.973 224.5,230.5C 223.094,230.027 222.427,229.027 222.5,227.5 Z"/></g>
<g><path style="opacity:1" fill="#f16b6a" d="M 129.5,230.5 C 130.496,230.414 131.329,230.748 132,231.5C 132.967,235.908 132.134,239.908 129.5,243.5C 128.583,244.127 127.583,244.461 126.5,244.5C 126.328,243.508 126.662,242.842 127.5,242.5C 128.906,242.027 129.573,241.027 129.5,239.5C 130.833,236.833 130.833,234.167 129.5,231.5C 129.5,231.167 129.5,230.833 129.5,230.5 Z"/></g>
<g><path style="opacity:0.643" fill="#f69a94" d="M 252.5,229.5 C 254.048,229.821 254.715,230.821 254.5,232.5C 253.094,232.027 252.427,231.027 252.5,229.5 Z"/></g>
<g><path style="opacity:0.196" fill="#ffcccc" d="M 347.5,228.5 C 348.906,228.973 349.573,229.973 349.5,231.5C 348.094,231.027 347.427,230.027 347.5,228.5 Z"/></g>
<g><path style="opacity:0.478" fill="#fd989a" d="M 471.5,228.5 C 472.906,228.973 473.573,229.973 473.5,231.5C 472.094,231.027 471.427,230.027 471.5,228.5 Z"/></g>
<g><path style="opacity:0.573" fill="#f9babc" d="M 350.5,233.5 C 353.167,234.833 353.167,236.167 350.5,237.5C 350.5,236.167 350.5,234.833 350.5,233.5 Z"/></g>
<g><path style="opacity:1" fill="#f58281" d="M 473.5,231.5 C 477.5,234.167 477.5,236.833 473.5,239.5C 473.5,236.833 473.5,234.167 473.5,231.5 Z"/></g>
<g><path style="opacity:0.949" fill="#ec8a8e" d="M 225.5,232.5 C 227.994,234.406 227.994,236.406 225.5,238.5C 225.5,236.5 225.5,234.5 225.5,232.5 Z"/></g>
<g><path style="opacity:1" fill="#eb5c5a" d="M 349.5,231.5 C 350.338,231.842 350.672,232.508 350.5,233.5C 350.5,234.833 350.5,236.167 350.5,237.5C 350.672,238.492 350.338,239.158 349.5,239.5C 348.094,239.973 347.427,240.973 347.5,242.5C 347.167,242.5 346.833,242.5 346.5,242.5C 348.03,239.017 349.03,235.35 349.5,231.5 Z"/></g>
<g><path style="opacity:0.212" fill="#ffc9c8" d="M 380.5,235.5 C 380.573,237.027 379.906,238.027 378.5,238.5C 378.427,236.973 379.094,235.973 380.5,235.5 Z"/></g>
<g><path style="opacity:0.4" fill="#ffa6a7" d="M 254.5,238.5 C 254.573,240.027 253.906,241.027 252.5,241.5C 252.427,239.973 253.094,238.973 254.5,238.5 Z"/></g>
<g><path style="opacity:0.075" fill="#fdafaf" d="M 472.5,239.5 C 472.833,239.5 473.167,239.5 473.5,239.5C 473.573,241.027 472.906,242.027 471.5,242.5C 471.557,241.391 471.89,240.391 472.5,239.5 Z"/></g>
<g><path style="opacity:0.349" fill="#fcb6b0" d="M 129.5,239.5 C 129.573,241.027 128.906,242.027 127.5,242.5C 127.427,240.973 128.094,239.973 129.5,239.5 Z"/></g>
<g><path style="opacity:0.075" fill="#ffdad9" d="M 349.5,239.5 C 349.573,241.027 348.906,242.027 347.5,242.5C 347.427,240.973 348.094,239.973 349.5,239.5 Z"/></g>
<g><path style="opacity:0.318" fill="#feb2b0" d="M 377.5,240.5 C 377.443,241.609 377.11,242.609 376.5,243.5C 376.167,243.5 375.833,243.5 375.5,243.5C 375.427,241.973 376.094,240.973 377.5,240.5 Z"/></g>
<g><path style="opacity:1" fill="#f4433f" d="M 224.5,239.5 C 224.34,241.153 223.674,242.486 222.5,243.5C 221.094,243.973 220.427,244.973 220.5,246.5C 219.167,247.833 217.833,249.167 216.5,250.5C 217.052,246.965 218.218,243.632 220,240.5C 221.429,240.53 222.929,240.197 224.5,239.5 Z"/></g>
<g><path style="opacity:0.357" fill="#feb0aa" d="M 252.5,241.5 C 252.573,243.027 251.906,244.027 250.5,244.5C 250.427,242.973 251.094,241.973 252.5,241.5 Z"/></g>
<g><path style="opacity:0.024" fill="#ffc5d7" d="M 346.5,242.5 C 346.833,242.5 347.167,242.5 347.5,242.5C 347.573,244.027 346.906,245.027 345.5,245.5C 345.557,244.391 345.89,243.391 346.5,242.5 Z"/></g>
<g><path style="opacity:1" fill="#f03a3f" d="M 346.5,242.5 C 345.89,243.391 345.557,244.391 345.5,245.5C 343.952,245.821 343.285,246.821 343.5,248.5C 342.094,248.973 341.427,249.973 341.5,251.5C 340.833,252.833 340.167,254.167 339.5,255.5C 339.167,255.5 338.833,255.5 338.5,255.5C 339.979,251.723 340.812,247.723 341,243.5C 341.561,244.022 342.228,244.355 343,244.5C 344.077,243.571 345.244,242.904 346.5,242.5 Z"/></g>
<g><path style="opacity:0.075" fill="#ffd5d4" d="M 222.5,243.5 C 222.573,245.027 221.906,246.027 220.5,246.5C 220.427,244.973 221.094,243.973 222.5,243.5 Z"/></g>
<g><path style="opacity:0.231" fill="#ffb9c1" d="M 375.5,243.5 C 375.573,245.027 374.906,246.027 373.5,246.5C 373.427,244.973 374.094,243.973 375.5,243.5 Z"/></g>
<g><path style="opacity:0.573" fill="#ef938e" d="M 126.5,244.5 C 126.5,245.167 126.5,245.833 126.5,246.5C 125.833,246.833 125.167,247.167 124.5,247.5C 124.427,245.973 125.094,244.973 126.5,244.5 Z"/></g>
<g><path style="opacity:0.302" fill="#ffc4be" d="M 250.5,244.5 C 250.573,246.027 249.906,247.027 248.5,247.5C 248.427,245.973 249.094,244.973 250.5,244.5 Z"/></g>
<g><path style="opacity:0.027" fill="#fdb5b5" d="M 345.5,245.5 C 345.573,247.027 344.906,248.027 343.5,248.5C 343.285,246.821 343.952,245.821 345.5,245.5 Z"/></g>
<g><path style="opacity:0.071" fill="#ffc8d2" d="M 470.5,244.5 C 470.573,246.027 469.906,247.027 468.5,247.5C 468.427,245.973 469.094,244.973 470.5,244.5 Z"/></g>
<g><path style="opacity:0.157" fill="#ffcec8" d="M 373.5,246.5 C 373.573,248.027 372.906,249.027 371.5,249.5C 371.427,247.973 372.094,246.973 373.5,246.5 Z"/></g>
<g><path style="opacity:0.51" fill="#ffabaf" d="M 124.5,247.5 C 124.262,249.404 123.262,250.738 121.5,251.5C 121.738,249.596 122.738,248.262 124.5,247.5 Z"/></g>
<g><path style="opacity:0.153" fill="#fcc0bd" d="M 343.5,248.5 C 343.573,250.027 342.906,251.027 341.5,251.5C 341.427,249.973 342.094,248.973 343.5,248.5 Z"/></g>
<g><path style="opacity:1" fill="#f13138" d="M 126.5,246.5 C 126.068,250.03 124.568,253.03 122,255.5C 121.506,257.134 121.34,258.801 121.5,260.5C 119.708,260.366 118.042,260.699 116.5,261.5C 116.5,260.833 116.5,260.167 116.5,259.5C 117.906,259.027 118.573,258.027 118.5,256.5C 118.328,255.508 118.662,254.842 119.5,254.5C 120.906,254.027 121.573,253.027 121.5,251.5C 123.262,250.738 124.262,249.404 124.5,247.5C 125.167,247.167 125.833,246.833 126.5,246.5 Z"/></g>
<g><path style="opacity:0.796" fill="#fa9f9e" d="M 220.5,246.5 C 219.617,249.704 217.95,252.371 215.5,254.5C 215.5,253.5 215.5,252.5 215.5,251.5C 215.5,250.833 215.833,250.5 216.5,250.5C 217.833,249.167 219.167,247.833 220.5,246.5 Z"/></g>
<g><path style="opacity:0.106" fill="#ffd3d3" d="M 371.5,249.5 C 371.573,251.027 370.906,252.027 369.5,252.5C 369.427,250.973 370.094,249.973 371.5,249.5 Z"/></g>
<g><path style="opacity:1" fill="#f16159" d="M 215.5,251.5 C 215.5,252.5 215.5,253.5 215.5,254.5C 215.068,255.71 214.401,256.71 213.5,257.5C 213.5,256.833 213.5,256.167 213.5,255.5C 213.157,253.517 213.824,252.183 215.5,251.5 Z"/></g>
<g><path style="opacity:0.878" fill="#f6a0a1" d="M 466.5,250.5 C 466.25,252.674 465.25,254.341 463.5,255.5C 463.241,253.011 464.241,251.344 466.5,250.5 Z"/></g>
<g><path style="opacity:0.18" fill="#ffcdd1" d="M 121.5,251.5 C 121.573,253.027 120.906,254.027 119.5,254.5C 119.427,252.973 120.094,251.973 121.5,251.5 Z"/></g>
<g><path style="opacity:0.98" fill="#f68f8d" d="M 247.5,249.5 C 246.702,251.966 245.369,253.966 243.5,255.5C 243.845,252.802 245.178,250.802 247.5,249.5 Z"/></g>
<g><path style="opacity:1" fill="#f33c3b" d="M 472.5,239.5 C 471.89,240.391 471.557,241.391 471.5,242.5C 471.672,243.492 471.338,244.158 470.5,244.5C 469.094,244.973 468.427,245.973 468.5,247.5C 468.573,249.027 467.906,250.027 466.5,250.5C 464.241,251.344 463.241,253.011 463.5,255.5C 462.094,255.973 461.427,256.973 461.5,258.5C 460.272,259.306 459.272,260.306 458.5,261.5C 458.337,259.143 458.503,256.81 459,254.5C 459.741,253.359 460.575,253.359 461.5,254.5C 463.73,250.332 466.063,246.332 468.5,242.5C 469.642,241.174 470.976,240.174 472.5,239.5 Z"/></g>
<g><path style="opacity:0.573" fill="#f99a96" d="M 369.5,252.5 C 369.771,254.38 369.104,255.713 367.5,256.5C 367.66,254.847 368.326,253.514 369.5,252.5 Z"/></g>
<g><path style="opacity:0.918" fill="#f38a7f" d="M 338.5,255.5 C 338.833,255.5 339.167,255.5 339.5,255.5C 338.488,256.872 337.488,258.205 336.5,259.5C 336.157,257.517 336.824,256.183 338.5,255.5 Z"/></g>
<g><path style="opacity:0.247" fill="#ffc2c2" d="M 243.5,255.5 C 243.5,256.167 243.5,256.833 243.5,257.5C 242.833,257.833 242.167,258.167 241.5,258.5C 241.427,256.973 242.094,255.973 243.5,255.5 Z"/></g>
<g><path style="opacity:0.09" fill="#ffd2d1" d="M 463.5,255.5 C 463.573,257.027 462.906,258.027 461.5,258.5C 461.427,256.973 462.094,255.973 463.5,255.5 Z"/></g>
<g><path style="opacity:0.255" fill="#ffc0bf" d="M 118.5,256.5 C 118.573,258.027 117.906,259.027 116.5,259.5C 116.427,257.973 117.094,256.973 118.5,256.5 Z"/></g>
<g><path style="opacity:1" fill="#f2373d" d="M 213.5,255.5 C 213.5,256.167 213.5,256.833 213.5,257.5C 213.068,258.71 212.401,259.71 211.5,260.5C 210.094,260.973 209.427,261.973 209.5,263.5C 208.094,263.973 207.427,264.973 207.5,266.5C 207.167,266.5 206.833,266.5 206.5,266.5C 206.904,260.903 209.238,257.236 213.5,255.5 Z"/></g>
<g><path style="opacity:0.525" fill="#f69598" d="M 367.5,256.5 C 367.573,258.027 366.906,259.027 365.5,259.5C 365.427,257.973 366.094,256.973 367.5,256.5 Z"/></g>
<g><path style="opacity:0.984" fill="#f8645d" d="M 335.5,259.5 C 334.89,260.391 334.557,261.391 334.5,262.5C 333.89,264.434 332.89,266.101 331.5,267.5C 331.292,265.08 331.626,262.747 332.5,260.5C 333.325,259.614 334.325,259.281 335.5,259.5 Z"/></g>
<g><path style="opacity:0.145" fill="#ffc5c8" d="M 461.5,258.5 C 461.25,260.674 460.25,262.341 458.5,263.5C 458.5,262.833 458.5,262.167 458.5,261.5C 459.272,260.306 460.272,259.306 461.5,258.5 Z"/></g>
<g><path style="opacity:0.165" fill="#ffcacd" d="M 116.5,259.5 C 116.5,260.167 116.5,260.833 116.5,261.5C 115.833,261.833 115.167,262.167 114.5,262.5C 114.427,260.973 115.094,259.973 116.5,259.5 Z"/></g>
<g><path style="opacity:1" fill="#e85454" d="M 243.5,257.5 C 242.864,259.795 241.531,261.461 239.5,262.5C 239.66,260.847 240.326,259.514 241.5,258.5C 242.167,258.167 242.833,257.833 243.5,257.5 Z"/></g>
<g><path style="opacity:0.114" fill="#ffcccc" d="M 335.5,259.5 C 335.833,259.5 336.167,259.5 336.5,259.5C 336.573,261.027 335.906,262.027 334.5,262.5C 334.557,261.391 334.89,260.391 335.5,259.5 Z"/></g>
<g><path style="opacity:0.459" fill="#f8a09f" d="M 365.5,259.5 C 365.573,261.027 364.906,262.027 363.5,262.5C 363.427,260.973 364.094,259.973 365.5,259.5 Z"/></g>
<g><path style="opacity:0.082" fill="#fec9ca" d="M 211.5,260.5 C 211.573,262.027 210.906,263.027 209.5,263.5C 209.427,261.973 210.094,260.973 211.5,260.5 Z"/></g>
<g><path style="opacity:0.106" fill="#ffd7d8" d="M 114.5,262.5 C 114.573,264.027 113.906,265.027 112.5,265.5C 112.427,263.973 113.094,262.973 114.5,262.5 Z"/></g>
<g><path style="opacity:0.016" fill="#feb3b0" d="M 209.5,263.5 C 209.573,265.027 208.906,266.027 207.5,266.5C 207.427,264.973 208.094,263.973 209.5,263.5 Z"/></g>
<g><path style="opacity:0.392" fill="#fea7aa" d="M 363.5,262.5 C 363.573,264.027 362.906,265.027 361.5,265.5C 361.427,263.973 362.094,262.973 363.5,262.5 Z"/></g>
<g><path style="opacity:0.816" fill="#f5968e" d="M 237.5,265.5 C 237.262,267.404 236.262,268.738 234.5,269.5C 234.738,267.596 235.738,266.262 237.5,265.5 Z"/></g>
<g><path style="opacity:0.318" fill="#febaba" d="M 361.5,265.5 C 361.573,267.027 360.906,268.027 359.5,268.5C 359.427,266.973 360.094,265.973 361.5,265.5 Z"/></g>
<g><path style="opacity:0.537" fill="#f89291" d="M 458.5,263.5 C 456.656,267.192 454.323,270.525 451.5,273.5C 452.243,269.085 454.576,265.752 458.5,263.5 Z"/></g>
<g><path style="opacity:0.886" fill="#f79895" d="M 206.5,266.5 C 206.833,266.5 207.167,266.5 207.5,266.5C 207.25,268.674 206.25,270.341 204.5,271.5C 204.365,269.446 205.032,267.779 206.5,266.5 Z"/></g>
<g><path style="opacity:0.004" fill="#ffc9c8" d="M 331.5,267.5 C 331.573,269.027 330.906,270.027 329.5,270.5C 329.285,268.821 329.952,267.821 331.5,267.5 Z"/></g>
<g><path style="opacity:0.286" fill="#ffb8c2" d="M 111.5,267.5 C 111.573,269.027 110.906,270.027 109.5,270.5C 109.427,268.973 110.094,267.973 111.5,267.5 Z"/></g>
<g><path style="opacity:0.239" fill="#ffbcbf" d="M 359.5,268.5 C 359.573,270.027 358.906,271.027 357.5,271.5C 357.427,269.973 358.094,268.973 359.5,268.5 Z"/></g>
<g><path style="opacity:0.282" fill="#ffb7c3" d="M 234.5,269.5 C 234.573,271.027 233.906,272.027 232.5,272.5C 232.427,270.973 233.094,269.973 234.5,269.5 Z"/></g>
<g><path style="opacity:0.031" fill="#ffc6c2" d="M 204.5,271.5 C 204.573,273.027 203.906,274.027 202.5,274.5C 202.427,272.973 203.094,271.973 204.5,271.5 Z"/></g>
<g><path style="opacity:0.149" fill="#ffc4c4" d="M 329.5,270.5 C 329.573,272.027 328.906,273.027 327.5,273.5C 327.5,273.167 327.5,272.833 327.5,272.5C 327.833,271.5 328.5,270.833 329.5,270.5 Z"/></g>
<g><path style="opacity:1" fill="#f03a3f" d="M 239.5,262.5 C 238.751,266.761 237.251,270.761 235,274.5C 233.259,275.758 231.426,276.758 229.5,277.5C 229.328,276.508 229.662,275.842 230.5,275.5C 231.906,275.027 232.573,274.027 232.5,272.5C 233.906,272.027 234.573,271.027 234.5,269.5C 236.262,268.738 237.262,267.404 237.5,265.5C 237.427,263.973 238.094,262.973 239.5,262.5 Z"/></g>
<g><path style="opacity:0.165" fill="#ffd0d5" d="M 357.5,271.5 C 357.573,273.027 356.906,274.027 355.5,274.5C 355.427,272.973 356.094,271.973 357.5,271.5 Z"/></g>
<g><path style="opacity:0.478" fill="#fc9ca0" d="M 108.5,272.5 C 108.573,274.027 107.906,275.027 106.5,275.5C 106.427,273.973 107.094,272.973 108.5,272.5 Z"/></g>
<g><path style="opacity:0.212" fill="#ffcacd" d="M 232.5,272.5 C 232.573,274.027 231.906,275.027 230.5,275.5C 230.427,273.973 231.094,272.973 232.5,272.5 Z"/></g>
<g><path style="opacity:0.969" fill="#ed706b" d="M 451.5,273.5 C 451.25,275.674 450.25,277.341 448.5,278.5C 448.5,277.5 448.5,276.5 448.5,275.5C 448.973,274.094 449.973,273.427 451.5,273.5 Z"/></g>
<g><path style="opacity:0.188" fill="#fdbeba" d="M 202.5,274.5 C 202.25,276.674 201.25,278.341 199.5,279.5C 199.273,277.067 200.273,275.401 202.5,274.5 Z"/></g>
<g><path style="opacity:0.412" fill="#ffacac" d="M 106.5,275.5 C 106.573,277.027 105.906,278.027 104.5,278.5C 104.427,276.973 105.094,275.973 106.5,275.5 Z"/></g>
<g><path style="opacity:0.259" fill="#ffb5ba" d="M 229.5,277.5 C 229.573,279.027 228.906,280.027 227.5,280.5C 227.427,278.973 228.094,277.973 229.5,277.5 Z"/></g>
<g><path style="opacity:0.992" fill="#f77069" d="M 327.5,272.5 C 327.5,272.833 327.5,273.167 327.5,273.5C 325.081,278.009 322.414,282.342 319.5,286.5C 319.167,286.5 318.833,286.5 318.5,286.5C 319.167,284.5 319.833,282.5 320.5,280.5C 320.821,278.952 321.821,278.285 323.5,278.5C 323.5,276.5 323.5,274.5 323.5,272.5C 324.833,272.5 326.167,272.5 327.5,272.5 Z"/></g>
<g><path style="opacity:0.341" fill="#ffb3b8" d="M 104.5,278.5 C 104.573,280.027 103.906,281.027 102.5,281.5C 102.427,279.973 103.094,278.973 104.5,278.5 Z"/></g>
<g><path style="opacity:0.004" fill="#ffd9d5" d="M 199.5,279.5 C 199.573,281.027 198.906,282.027 197.5,282.5C 197.427,280.973 198.094,279.973 199.5,279.5 Z"/></g>
<g><path style="opacity:0.608" fill="#f48f8e" d="M 353.5,278.5 C 353.573,280.027 352.906,281.027 351.5,281.5C 351.427,279.973 352.094,278.973 353.5,278.5 Z"/></g>
<g><path style="opacity:0.192" fill="#ffc3c6" d="M 227.5,280.5 C 227.5,281.167 227.5,281.833 227.5,282.5C 226.833,282.833 226.167,283.167 225.5,283.5C 225.427,281.973 226.094,280.973 227.5,280.5 Z"/></g>
<g><path style="opacity:0.106" fill="#ffd3cb" d="M 447.5,280.5 C 447.573,282.027 446.906,283.027 445.5,283.5C 445.427,281.973 446.094,280.973 447.5,280.5 Z"/></g>
<g><path style="opacity:0.263" fill="#ffc4c2" d="M 102.5,281.5 C 102.573,283.027 101.906,284.027 100.5,284.5C 100.427,282.973 101.094,281.973 102.5,281.5 Z"/></g>
<g><path style="opacity:0.937" fill="#f48282" d="M 196.5,283.5 C 195.331,286.511 193.664,289.178 191.5,291.5C 191.776,287.921 193.443,285.254 196.5,283.5 Z"/></g>
<g><path style="opacity:0.192" fill="#ffcacd" d="M 100.5,284.5 C 100.443,285.609 100.11,286.609 99.5,287.5C 99.1667,287.5 98.8333,287.5 98.5,287.5C 98.427,285.973 99.0937,284.973 100.5,284.5 Z"/></g>
<g><path style="opacity:0.976" fill="#f38380" d="M 351.5,281.5 C 350.702,283.966 349.369,285.966 347.5,287.5C 347.845,284.802 349.178,282.802 351.5,281.5 Z"/></g>
<g><path style="opacity:1" fill="#f42029" d="M 320.5,280.5 C 319.833,282.5 319.167,284.5 318.5,286.5C 317.89,287.391 317.557,288.391 317.5,289.5C 315.178,290.802 313.845,292.802 313.5,295.5C 312.094,295.973 311.427,296.973 311.5,298.5C 311.5,299.167 311.167,299.5 310.5,299.5C 310.5,299.167 310.5,298.833 310.5,298.5C 310.682,296.409 310.348,294.409 309.5,292.5C 310.522,291.646 311.355,290.646 312,289.5C 312.414,289.957 312.914,290.291 313.5,290.5C 314.747,288.994 314.747,287.494 313.5,286C 314.46,284.581 315.293,283.081 316,281.5C 316.333,281.833 316.667,282.167 317,282.5C 317.71,281.027 318.876,280.36 320.5,280.5 Z"/></g>
<g><path style="opacity:1" fill="#f53436" d="M 448.5,275.5 C 448.5,276.5 448.5,277.5 448.5,278.5C 448.672,279.492 448.338,280.158 447.5,280.5C 446.094,280.973 445.427,281.973 445.5,283.5C 445.573,285.027 444.906,286.027 443.5,286.5C 442.094,286.973 441.427,287.973 441.5,289.5C 438.682,291.979 436.682,294.979 435.5,298.5C 435.167,298.5 434.833,298.5 434.5,298.5C 434.337,296.143 434.503,293.81 435,291.5C 435.893,292.711 436.726,292.711 437.5,291.5C 439.008,287.808 441.008,284.475 443.5,281.5C 443.291,280.914 442.957,280.414 442.5,280C 445.058,279.116 447.058,277.616 448.5,275.5 Z"/></g>
<g><path style="opacity:0.035" fill="#ffdddd" d="M 318.5,286.5 C 318.833,286.5 319.167,286.5 319.5,286.5C 319.573,288.027 318.906,289.027 317.5,289.5C 317.557,288.391 317.89,287.391 318.5,286.5 Z"/></g>
<g><path style="opacity:0.196" fill="#ffb6b5" d="M 443.5,286.5 C 443.573,288.027 442.906,289.027 441.5,289.5C 441.427,287.973 442.094,286.973 443.5,286.5 Z"/></g>
<g><path style="opacity:0.384" fill="#fca8a8" d="M 347.5,287.5 C 347.573,289.027 346.906,290.027 345.5,290.5C 345.427,288.973 346.094,287.973 347.5,287.5 Z"/></g>
<g><path style="opacity:1" fill="#e96066" d="M 98.5,287.5 C 98.8333,287.5 99.1667,287.5 99.5,287.5C 99.4456,289.632 98.4456,290.965 96.5,291.5C 96.6596,289.847 97.3263,288.514 98.5,287.5 Z"/></g>
<g><path style="opacity:0.404" fill="#feb1af" d="M 222.5,288.5 C 222.573,290.027 221.906,291.027 220.5,291.5C 220.427,289.973 221.094,288.973 222.5,288.5 Z"/></g>
<g><path style="opacity:1" fill="#ee4041" d="M 227.5,282.5 C 226.186,285.489 224.853,288.489 223.5,291.5C 221.499,293.869 219.499,296.202 217.5,298.5C 217.5,297.833 217.5,297.167 217.5,296.5C 218.906,296.027 219.573,295.027 219.5,293.5C 219.328,292.508 219.662,291.842 220.5,291.5C 221.906,291.027 222.573,290.027 222.5,288.5C 223.11,286.566 224.11,284.899 225.5,283.5C 226.167,283.167 226.833,282.833 227.5,282.5 Z"/></g>
<g><path style="opacity:0.302" fill="#ffb4b4" d="M 345.5,290.5 C 345.573,292.027 344.906,293.027 343.5,293.5C 343.427,291.973 344.094,290.973 345.5,290.5 Z"/></g>
<g><path style="opacity:0.612" fill="#fa928c" d="M 96.5,291.5 C 96.573,293.027 95.9063,294.027 94.5,294.5C 94.427,292.973 95.0937,291.973 96.5,291.5 Z"/></g>
<g><path style="opacity:0.749" fill="#f78d8a" d="M 219.5,293.5 C 219.573,295.027 218.906,296.027 217.5,296.5C 217.427,294.973 218.094,293.973 219.5,293.5 Z"/></g>
<g><path style="opacity:0.098" fill="#ffc8ce" d="M 317.5,289.5 C 316.66,291.853 315.326,293.853 313.5,295.5C 313.845,292.802 315.178,290.802 317.5,289.5 Z"/></g>
<g><path style="opacity:0.282" fill="#fba7a6" d="M 441.5,289.5 C 440.277,293.049 438.277,296.049 435.5,298.5C 436.682,294.979 438.682,291.979 441.5,289.5 Z"/></g>
<g><path style="opacity:0.227" fill="#ffbfbe" d="M 343.5,293.5 C 343.573,295.027 342.906,296.027 341.5,296.5C 341.427,294.973 342.094,293.973 343.5,293.5 Z"/></g>
<g><path style="opacity:0.58" fill="#f89598" d="M 94.5,294.5 C 94.573,296.027 93.9063,297.027 92.5,297.5C 92.427,295.973 93.0937,294.973 94.5,294.5 Z"/></g>
<g><path style="opacity:0.149" fill="#ffc8c4" d="M 313.5,295.5 C 313.573,297.027 312.906,298.027 311.5,298.5C 311.427,296.973 312.094,295.973 313.5,295.5 Z"/></g>
<g><path style="opacity:0.157" fill="#ffc4c6" d="M 190.5,293.5 C 189.66,295.853 188.326,297.853 186.5,299.5C 186.845,296.802 188.178,294.802 190.5,293.5 Z"/></g>
<g><path style="opacity:0.435" fill="#feacac" d="M 217.5,296.5 C 217.5,297.167 217.5,297.833 217.5,298.5C 216.5,299.167 215.5,299.833 214.5,300.5C 214.738,298.596 215.738,297.262 217.5,296.5 Z"/></g>
<g><path style="opacity:0.157" fill="#ffd0d2" d="M 341.5,296.5 C 341.573,298.027 340.906,299.027 339.5,299.5C 339.427,297.973 340.094,296.973 341.5,296.5 Z"/></g>
<g><path style="opacity:0.984" fill="#ed5e5b" d="M 434.5,298.5 C 434.833,298.5 435.167,298.5 435.5,298.5C 435.267,300.062 434.6,301.395 433.5,302.5C 433.167,302.5 432.833,302.5 432.5,302.5C 432.5,301.5 432.5,300.5 432.5,299.5C 432.842,298.662 433.508,298.328 434.5,298.5 Z"/></g>
<g><path style="opacity:1" fill="#f8817d" d="M 186.5,299.5 C 185.66,301.853 184.326,303.853 182.5,305.5C 182.5,303.833 182.5,302.167 182.5,300.5C 183.959,300.567 185.292,300.234 186.5,299.5 Z"/></g>
<g><path style="opacity:0.443" fill="#faa59e" d="M 310.5,299.5 C 310.34,301.153 309.674,302.486 308.5,303.5C 308.229,301.62 308.896,300.287 310.5,299.5 Z"/></g>
<g><path style="opacity:0.965" fill="#f88a83" d="M 92.5,297.5 C 91.7023,299.966 90.369,301.966 88.5,303.5C 88.8449,300.802 90.1782,298.802 92.5,297.5 Z"/></g>
<g><path style="opacity:0.157" fill="#ffd1ce" d="M 214.5,300.5 C 214.573,302.027 213.906,303.027 212.5,303.5C 212.427,301.973 213.094,300.973 214.5,300.5 Z"/></g>
<g><path style="opacity:0.314" fill="#febcb8" d="M 338.5,301.5 C 338.573,303.027 337.906,304.027 336.5,304.5C 336.427,302.973 337.094,301.973 338.5,301.5 Z"/></g>
<g><path style="opacity:0.996" fill="#f7635d" d="M 310.5,298.5 C 310.5,298.833 310.5,299.167 310.5,299.5C 308.896,300.287 308.229,301.62 308.5,303.5C 306.07,308.037 303.403,312.37 300.5,316.5C 300.167,316.5 299.833,316.5 299.5,316.5C 299.933,313.834 300.433,311.168 301,308.5C 301.333,308.833 301.667,309.167 302,309.5C 304.618,306.267 306.118,302.6 306.5,298.5C 307.833,298.5 309.167,298.5 310.5,298.5 Z"/></g>
<g><path style="opacity:0.043" fill="#ffdbdc" d="M 432.5,302.5 C 432.833,302.5 433.167,302.5 433.5,302.5C 433.573,304.027 432.906,305.027 431.5,305.5C 431.557,304.391 431.89,303.391 432.5,302.5 Z"/></g>
<g><path style="opacity:0.333" fill="#ffaeae" d="M 88.5,303.5 C 88.1551,306.198 86.8218,308.198 84.5,309.5C 85.3403,307.147 86.6736,305.147 88.5,303.5 Z"/></g>
<g><path style="opacity:0.082" fill="#ffdad8" d="M 212.5,303.5 C 212.5,304.167 212.5,304.833 212.5,305.5C 211.833,305.833 211.167,306.167 210.5,306.5C 210.427,304.973 211.094,303.973 212.5,303.5 Z"/></g>
<g><path style="opacity:0.094" fill="#ffc9c7" d="M 431.5,305.5 C 430.277,309.049 428.277,312.049 425.5,314.5C 426.759,310.975 428.759,307.975 431.5,305.5 Z"/></g>
<g><path style="opacity:0.976" fill="#f78681" d="M 181.5,307.5 C 180.66,309.853 179.326,311.853 177.5,313.5C 176.887,310.031 178.221,308.031 181.5,307.5 Z"/></g>
<g><path style="opacity:0.545" fill="#fb9997" d="M 335.5,306.5 C 335.573,308.027 334.906,309.027 333.5,309.5C 333.427,307.973 334.094,306.973 335.5,306.5 Z"/></g>
<g><path style="opacity:0.169" fill="#ffccca" d="M 84.5,309.5 C 84.573,311.027 83.9063,312.027 82.5,312.5C 82.427,310.973 83.0937,309.973 84.5,309.5 Z"/></g>
<g><path style="opacity:1" fill="#ef7874" d="M 212.5,305.5 C 211.615,309.046 209.615,311.712 206.5,313.5C 207.584,310.996 208.917,308.663 210.5,306.5C 211.167,306.167 211.833,305.833 212.5,305.5 Z"/></g>
<g><path style="opacity:0.478" fill="#fca09d" d="M 333.5,309.5 C 333.573,311.027 332.906,312.027 331.5,312.5C 331.427,310.973 332.094,309.973 333.5,309.5 Z"/></g>
<g><path style="opacity:0.114" fill="#ffd4d5" d="M 82.5,312.5 C 82.4431,313.609 82.1098,314.609 81.5,315.5C 81.1667,315.5 80.8333,315.5 80.5,315.5C 80.427,313.973 81.0937,312.973 82.5,312.5 Z"/></g>
<g><path style="opacity:0.882" fill="#ea7a77" d="M 177.5,313.5 C 176.737,315.368 175.737,317.035 174.5,318.5C 173.916,315.715 174.916,314.048 177.5,313.5 Z"/></g>
<g><path style="opacity:0.392" fill="#feb2a7" d="M 206.5,313.5 C 206.573,315.027 205.906,316.027 204.5,316.5C 204.427,314.973 205.094,313.973 206.5,313.5 Z"/></g>
<g><path style="opacity:0.263" fill="#fbb2b2" d="M 425.5,314.5 C 425.573,316.027 424.906,317.027 423.5,317.5C 423.427,315.973 424.094,314.973 425.5,314.5 Z"/></g>
<g><path style="opacity:0.318" fill="#feb7b4" d="M 331.5,312.5 C 331.5,313.167 331.5,313.833 331.5,314.5C 330.167,315.833 328.833,317.167 327.5,318.5C 327.845,315.802 329.178,313.802 331.5,312.5 Z"/></g>
<g><path style="opacity:1" fill="#ed6764" d="M 80.5,315.5 C 80.8333,315.5 81.1667,315.5 81.5,315.5C 81.4456,317.632 80.4456,318.965 78.5,319.5C 78.6596,317.847 79.3263,316.514 80.5,315.5 Z"/></g>
<g><path style="opacity:0.329" fill="#ffbeb5" d="M 204.5,316.5 C 204.573,318.027 203.906,319.027 202.5,319.5C 202.427,317.973 203.094,316.973 204.5,316.5 Z"/></g>
<g><path style="opacity:0.122" fill="#ffc5b9" d="M 298.5,316.5 C 298.833,316.5 299.167,316.5 299.5,316.5C 299.833,316.5 300.167,316.5 300.5,316.5C 299.974,318.23 298.974,319.564 297.5,320.5C 297.833,319.167 298.167,317.833 298.5,316.5 Z"/></g>
<g><path style="opacity:0.086" fill="#ffcccc" d="M 174.5,318.5 C 174.25,320.674 173.25,322.341 171.5,323.5C 171.5,323.167 171.5,322.833 171.5,322.5C 171.738,320.596 172.738,319.262 174.5,318.5 Z"/></g>
<g><path style="opacity:0.231" fill="#fec2bd" d="M 327.5,318.5 C 327.573,320.027 326.906,321.027 325.5,321.5C 325.427,319.973 326.094,318.973 327.5,318.5 Z"/></g>
<g><path style="opacity:1" fill="#f5413e" d="M 432.5,299.5 C 432.5,300.5 432.5,301.5 432.5,302.5C 431.89,303.391 431.557,304.391 431.5,305.5C 428.759,307.975 426.759,310.975 425.5,314.5C 424.094,314.973 423.427,315.973 423.5,317.5C 422.331,320.511 420.664,323.178 418.5,325.5C 417.833,325.833 417.167,326.167 416.5,326.5C 416.523,324.073 417.023,321.74 418,319.5C 418.414,319.957 418.914,320.291 419.5,320.5C 420.308,318.577 420.808,316.577 421,314.5C 422.011,313.663 423.178,313.33 424.5,313.5C 424.34,311.801 424.506,310.134 425,308.5C 425.333,308.833 425.667,309.167 426,309.5C 426.154,306.475 427.654,304.809 430.5,304.5C 430.077,302.219 430.744,300.552 432.5,299.5 Z"/></g>
<g><path style="opacity:0.541" fill="#fe9597" d="M 78.5,319.5 C 78.573,321.027 77.9063,322.027 76.5,322.5C 76.427,320.973 77.0937,319.973 78.5,319.5 Z"/></g>
<g><path style="opacity:0.278" fill="#ffb8b6" d="M 202.5,319.5 C 202.25,321.674 201.25,323.341 199.5,324.5C 199.75,322.326 200.75,320.659 202.5,319.5 Z"/></g>
<g><path style="opacity:1" fill="#f34541" d="M 298.5,316.5 C 298.167,317.833 297.833,319.167 297.5,320.5C 296.094,320.973 295.427,321.973 295.5,323.5C 294.094,323.973 293.427,324.973 293.5,326.5C 292.331,329.511 290.664,332.178 288.5,334.5C 287.833,334.833 287.167,335.167 286.5,335.5C 286.579,333.334 287.246,331.334 288.5,329.5C 288.392,328.558 288.059,327.725 287.5,327C 289.134,326.506 290.801,326.34 292.5,326.5C 292.463,321.885 294.463,318.552 298.5,316.5 Z"/></g>
<g><path style="opacity:0.141" fill="#ffbdbd" d="M 297.5,320.5 C 297.573,322.027 296.906,323.027 295.5,323.5C 295.427,321.973 296.094,320.973 297.5,320.5 Z"/></g>
<g><path style="opacity:0.149" fill="#ffcecb" d="M 325.5,321.5 C 325.573,323.027 324.906,324.027 323.5,324.5C 323.427,322.973 324.094,321.973 325.5,321.5 Z"/></g>
<g><path style="opacity:0.49" fill="#fa9e9e" d="M 76.5,322.5 C 76.573,324.027 75.9063,325.027 74.5,325.5C 74.427,323.973 75.0937,322.973 76.5,322.5 Z"/></g>
<g><path style="opacity:0.035" fill="#ffdada" d="M 171.5,323.5 C 171.573,325.027 170.906,326.027 169.5,326.5C 169.427,324.973 170.094,323.973 171.5,323.5 Z"/></g>
<g><path style="opacity:0.169" fill="#feb6b5" d="M 295.5,323.5 C 295.573,325.027 294.906,326.027 293.5,326.5C 293.427,324.973 294.094,323.973 295.5,323.5 Z"/></g>
<g><path style="opacity:0.345" fill="#feb1b0" d="M 199.5,324.5 C 199.573,326.027 198.906,327.027 197.5,327.5C 197.427,325.973 198.094,324.973 199.5,324.5 Z"/></g>
<g><path style="opacity:0.086" fill="#ffd4d3" d="M 323.5,324.5 C 323.573,326.027 322.906,327.027 321.5,327.5C 321.427,325.973 322.094,324.973 323.5,324.5 Z"/></g>
<g><path style="opacity:0.42" fill="#fea6a9" d="M 74.5,325.5 C 74.1551,328.198 72.8218,330.198 70.5,331.5C 71.3403,329.147 72.6736,327.147 74.5,325.5 Z"/></g>
<g><path style="opacity:0.89" fill="#f8908e" d="M 418.5,325.5 C 417.89,327.434 416.89,329.101 415.5,330.5C 415.5,329.833 415.5,329.167 415.5,328.5C 415.328,327.508 415.662,326.842 416.5,326.5C 417.167,326.167 417.833,325.833 418.5,325.5 Z"/></g>
<g><path style="opacity:0.055" fill="#ffd3d1" d="M 169.5,326.5 C 169.573,328.027 168.906,329.027 167.5,329.5C 167.427,327.973 168.094,326.973 169.5,326.5 Z"/></g>
<g><path style="opacity:0.263" fill="#ffbbc2" d="M 197.5,327.5 C 197.573,329.027 196.906,330.027 195.5,330.5C 195.427,328.973 196.094,327.973 197.5,327.5 Z"/></g>
<g><path style="opacity:0.251" fill="#ffbcbb" d="M 320.5,329.5 C 320.573,331.027 319.906,332.027 318.5,332.5C 318.427,330.973 319.094,329.973 320.5,329.5 Z"/></g>
<g><path style="opacity:1" fill="#ef3138" d="M 331.5,314.5 C 330.105,317.4 328.939,320.4 328,323.5C 325.347,325.43 324.014,328.096 324,331.5C 322.933,332.191 321.766,332.691 320.5,333C 319.418,335.687 317.751,337.854 315.5,339.5C 315.5,338.833 315.5,338.167 315.5,337.5C 316.906,337.027 317.573,336.027 317.5,334.5C 317.328,333.508 317.662,332.842 318.5,332.5C 319.906,332.027 320.573,331.027 320.5,329.5C 320.328,328.508 320.662,327.842 321.5,327.5C 322.906,327.027 323.573,326.027 323.5,324.5C 324.906,324.027 325.573,323.027 325.5,321.5C 326.906,321.027 327.573,320.027 327.5,318.5C 328.833,317.167 330.167,315.833 331.5,314.5 Z"/></g>
<g><path style="opacity:1" fill="#f05c5b" d="M 171.5,322.5 C 171.5,322.833 171.5,323.167 171.5,323.5C 170.094,323.973 169.427,324.973 169.5,326.5C 168.094,326.973 167.427,327.973 167.5,329.5C 165.192,333.795 162.526,337.795 159.5,341.5C 160.643,338.316 161.309,334.983 161.5,331.5C 162.978,331.762 164.311,331.429 165.5,330.5C 166.463,326.894 168.463,324.227 171.5,322.5 Z"/></g>
<g><path style="opacity:0.216" fill="#ffc7c8" d="M 195.5,330.5 C 195.573,332.027 194.906,333.027 193.5,333.5C 193.427,331.973 194.094,330.973 195.5,330.5 Z"/></g>
<g><path style="opacity:0.09" fill="#ffd2d1" d="M 415.5,330.5 C 415.573,332.027 414.906,333.027 413.5,333.5C 413.427,331.973 414.094,330.973 415.5,330.5 Z"/></g>
<g><path style="opacity:0.259" fill="#ffbfbb" d="M 70.5,331.5 C 70.1667,332.833 69.8333,334.167 69.5,335.5C 68.5,336.167 67.5,336.833 66.5,337.5C 67.3403,335.147 68.6736,333.147 70.5,331.5 Z"/></g>
<g><path style="opacity:0.998" fill="#f53b3f" d="M 415.5,328.5 C 415.5,329.167 415.5,329.833 415.5,330.5C 414.094,330.973 413.427,331.973 413.5,333.5C 413.573,335.027 412.906,336.027 411.5,336.5C 410.272,337.306 409.272,338.306 408.5,339.5C 408.962,335.697 409.962,332.031 411.5,328.5C 412.833,328.5 414.167,328.5 415.5,328.5 Z"/></g>
<g><path style="opacity:0.118" fill="#ffc4c4" d="M 288.5,334.5 C 288.573,336.027 287.906,337.027 286.5,337.5C 286.5,336.833 286.5,336.167 286.5,335.5C 287.167,335.167 287.833,334.833 288.5,334.5 Z"/></g>
<g><path style="opacity:0.451" fill="#fe9ca1" d="M 317.5,334.5 C 317.573,336.027 316.906,337.027 315.5,337.5C 315.427,335.973 316.094,334.973 317.5,334.5 Z"/></g>
<g><path style="opacity:0.431" fill="#ffa9ad" d="M 192.5,335.5 C 192.573,337.027 191.906,338.027 190.5,338.5C 190.427,336.973 191.094,335.973 192.5,335.5 Z"/></g>
<g><path style="opacity:0.051" fill="#ffbec2" d="M 411.5,336.5 C 411.25,338.674 410.25,340.341 408.5,341.5C 408.5,340.833 408.5,340.167 408.5,339.5C 409.272,338.306 410.272,337.306 411.5,336.5 Z"/></g>
<g><path style="opacity:0.102" fill="#ffd6d2" d="M 66.5,337.5 C 66.573,339.027 65.9063,340.027 64.5,340.5C 64.427,338.973 65.0937,337.973 66.5,337.5 Z"/></g>
<g><path style="opacity:0.38" fill="#feadaf" d="M 315.5,337.5 C 315.5,338.167 315.5,338.833 315.5,339.5C 314.833,339.833 314.167,340.167 313.5,340.5C 313.427,338.973 314.094,337.973 315.5,337.5 Z"/></g>
<g><path style="opacity:1" fill="#f77879" d="M 408.5,339.5 C 408.5,340.167 408.5,340.833 408.5,341.5C 408.262,343.404 407.262,344.738 405.5,345.5C 405.621,342.895 406.621,340.895 408.5,339.5 Z"/></g>
<g><path style="opacity:0.078" fill="#ffd8d3" d="M 285.5,339.5 C 285.573,341.027 284.906,342.027 283.5,342.5C 283.427,340.973 284.094,339.973 285.5,339.5 Z"/></g>
<g><path style="opacity:0.624" fill="#f9878a" d="M 189.5,340.5 C 189.573,342.027 188.906,343.027 187.5,343.5C 187.427,341.973 188.094,340.973 189.5,340.5 Z"/></g>
<g><path style="opacity:0.314" fill="#ffb4b1" d="M 313.5,340.5 C 313.573,342.027 312.906,343.027 311.5,343.5C 311.427,341.973 312.094,340.973 313.5,340.5 Z"/></g>
<g><path style="opacity:1" fill="#f12932" d="M 69.5,335.5 C 68.3195,337.693 67.3195,340.026 66.5,342.5C 67.1667,343.167 67.8333,343.833 68.5,344.5C 67.2839,345.096 65.9506,345.263 64.5,345C 63.8366,346.518 62.8366,347.685 61.5,348.5C 61.8333,347.167 62.1667,345.833 62.5,344.5C 62.7329,342.938 63.3995,341.605 64.5,340.5C 65.9063,340.027 66.573,339.027 66.5,337.5C 67.5,336.833 68.5,336.167 69.5,335.5 Z"/></g>
<g><path style="opacity:0.122" fill="#ffcacb" d="M 283.5,342.5 C 283.573,344.027 282.906,345.027 281.5,345.5C 281.427,343.973 282.094,342.973 283.5,342.5 Z"/></g>
<g><path style="opacity:0.525" fill="#fea4a5" d="M 187.5,343.5 C 187.5,344.167 187.5,344.833 187.5,345.5C 186.5,346.167 185.5,346.833 184.5,347.5C 184.738,345.596 185.738,344.262 187.5,343.5 Z"/></g>
<g><path style="opacity:0.235" fill="#ffc7c4" d="M 311.5,343.5 C 311.573,345.027 310.906,346.027 309.5,346.5C 309.427,344.973 310.094,343.973 311.5,343.5 Z"/></g>
<g><path style="opacity:0.549" fill="#fba4a0" d="M 281.5,345.5 C 281.573,347.027 280.906,348.027 279.5,348.5C 279.285,346.821 279.952,345.821 281.5,345.5 Z"/></g>
<g><path style="opacity:0.145" fill="#ffc2bf" d="M 158.5,343.5 C 157.66,345.853 156.326,347.853 154.5,349.5C 154.845,346.802 156.178,344.802 158.5,343.5 Z"/></g>
<g><path style="opacity:0.169" fill="#ffcfcf" d="M 309.5,346.5 C 309.5,347.167 309.5,347.833 309.5,348.5C 308.833,348.833 308.167,349.167 307.5,349.5C 307.427,347.973 308.094,346.973 309.5,346.5 Z"/></g>
<g><path style="opacity:1" fill="#f26e6e" d="M 404.5,347.5 C 403.42,349.996 402.086,352.33 400.5,354.5C 400.167,354.5 399.833,354.5 399.5,354.5C 399.5,354.167 399.5,353.833 399.5,353.5C 399.5,353.167 399.5,352.833 399.5,352.5C 400.091,351.849 400.757,351.182 401.5,350.5C 400.477,348.105 401.477,347.105 404.5,347.5 Z"/></g>
<g><path style="opacity:0.196" fill="#fdb8b8" d="M 279.5,348.5 C 279.573,350.027 278.906,351.027 277.5,351.5C 277.427,349.973 278.094,348.973 279.5,348.5 Z"/></g>
<g><path style="opacity:0.412" fill="#f9a6a7" d="M 153.5,351.5 C 153.068,352.71 152.401,353.71 151.5,354.5C 151.5,353.833 151.5,353.167 151.5,352.5C 151.842,351.662 152.508,351.328 153.5,351.5 Z"/></g>
<g><path style="opacity:1" fill="#f01827" d="M 187.5,345.5 C 187.171,347.991 186.171,350.157 184.5,352C 213.67,352.168 242.67,352.668 271.5,353.5C 241.814,354.159 212.481,353.492 183.5,351.5C 183.833,350.167 184.167,348.833 184.5,347.5C 185.5,346.833 186.5,346.167 187.5,345.5 Z"/></g>
<g><path style="opacity:1" fill="#f01a28" d="M 315.5,339.5 C 315.087,341.89 314.421,344.223 313.5,346.5C 311.812,348.029 310.479,349.863 309.5,352C 339.498,352.5 369.498,352.667 399.5,352.5C 399.5,352.833 399.5,353.167 399.5,353.5C 369.167,353.5 338.833,353.5 308.5,353.5C 308.629,351.784 308.962,350.117 309.5,348.5C 309.5,347.833 309.5,347.167 309.5,346.5C 310.906,346.027 311.573,345.027 311.5,343.5C 312.906,343.027 313.573,342.027 313.5,340.5C 314.167,340.167 314.833,339.833 315.5,339.5 Z"/></g>
<g><path style="opacity:0.975" fill="#d83b42" d="M 62.5,344.5 C 62.1667,345.833 61.8333,347.167 61.5,348.5C 60.0582,349.82 59.3915,351.486 59.5,353.5C 90.2402,353.825 120.907,353.492 151.5,352.5C 151.5,353.167 151.5,353.833 151.5,354.5C 120.16,354.833 88.8262,354.5 57.5,353.5C 58.1272,352.583 58.4606,351.583 58.5,350.5C 58.8449,347.802 60.1782,345.802 62.5,344.5 Z"/></g>
<g><path style="opacity:0.977" fill="#d63a42" d="M 183.5,351.5 C 212.481,353.492 241.814,354.159 271.5,353.5C 273.718,353.386 275.718,352.72 277.5,351.5C 277.573,353.027 276.906,354.027 275.5,354.5C 244.16,354.833 212.826,354.5 181.5,353.5C 181.855,352.478 182.522,351.811 183.5,351.5 Z"/></g>
<g><path style="opacity:0.977" fill="#d73a42" d="M 309.5,348.5 C 308.962,350.117 308.629,351.784 308.5,353.5C 338.833,353.5 369.167,353.5 399.5,353.5C 399.5,353.833 399.5,354.167 399.5,354.5C 367.996,354.832 336.662,354.498 305.5,353.5C 305.66,351.847 306.326,350.514 307.5,349.5C 308.167,349.167 308.833,348.833 309.5,348.5 Z"/></g>
<g><path style="opacity:0.231" fill="#febcc1" d="M 58.5,350.5 C 58.4606,351.583 58.1272,352.583 57.5,353.5C 88.8262,354.5 120.16,354.833 151.5,354.5C 119.664,355.83 87.6641,355.83 55.5,354.5C 56.0351,352.739 57.0351,351.406 58.5,350.5 Z"/></g>
<g><path style="opacity:0.231" fill="#febdc2" d="M 184.5,347.5 C 184.167,348.833 183.833,350.167 183.5,351.5C 182.522,351.811 181.855,352.478 181.5,353.5C 212.826,354.5 244.16,354.833 275.5,354.5C 243.664,355.83 211.664,355.83 179.5,354.5C 180.836,351.846 182.503,349.513 184.5,347.5 Z"/></g>
<g><path style="opacity:0.231" fill="#ffbcc3" d="M 305.5,353.5 C 336.662,354.498 367.996,354.832 399.5,354.5C 399.833,354.5 400.167,354.5 400.5,354.5C 368.664,355.83 336.664,355.83 304.5,354.5C 304.624,353.893 304.957,353.56 305.5,353.5 Z"/></g>
</svg>
